<?xml version="1.0" encoding="utf-8"?>
<!-- Generator: Adobe Illustrator 27.7.0, SVG Export Plug-In . SVG Version: 6.00 Build 0)  -->
<svg version="1.1" id="logo-50" xmlns="http://www.w3.org/2000/svg" xmlns:xlink="http://www.w3.org/1999/xlink" x="0px" y="0px"
	 viewBox="0 0 153 38" style="enable-background:new 0 0 153 38;" xml:space="preserve">
<style type="text/css">
	.st0{fill:url(#SVGID_1_);}
	.st1{fill:url(#SVGID_00000102504714318902246800000013255972852501165972_);}
	.st2{fill:url(#SVGID_00000034052331232797523680000007421609389005411992_);}
	.st3{fill:url(#SVGID_00000165952179989647073420000005331165601400539829_);}
	.st4{fill:#FFFFFF;}
</style>
<g>
	<g>
		
			<linearGradient id="SVGID_1_" gradientUnits="userSpaceOnUse" x1="42.7952" y1="40.0261" x2="34.7633" y2="9.4531" gradientTransform="matrix(1 0 0 -1 0 37.8898)">
			<stop  offset="0" style="stop-color:#FFE200"/>
			<stop  offset="0.4469" style="stop-color:#F7911E"/>
			<stop  offset="0.4943" style="stop-color:#F78E26"/>
			<stop  offset="0.5761" style="stop-color:#F6863C"/>
			<stop  offset="0.6827" style="stop-color:#F47859"/>
			<stop  offset="0.8099" style="stop-color:#F16171"/>
			<stop  offset="0.9529" style="stop-color:#EE3988"/>
			<stop  offset="1" style="stop-color:#ED2190"/>
		</linearGradient>
		<path class="st0" d="M41.5,31.8h-8.4V5.5h5.8c1.4,0,2.6,1.2,2.6,2.6V31.8z"/>
		<g>
			
				<linearGradient id="SVGID_00000069363168099192509540000011768395284235523218_" gradientUnits="userSpaceOnUse" x1="11.5177" y1="35.4473" x2="20.6507" y2="2.2186" gradientTransform="matrix(1 0 0 -1 0 37.8898)">
				<stop  offset="0" style="stop-color:#FFE200"/>
				<stop  offset="0.4469" style="stop-color:#F7911E"/>
				<stop  offset="0.4943" style="stop-color:#F78E26"/>
				<stop  offset="0.5761" style="stop-color:#F6863C"/>
				<stop  offset="0.6827" style="stop-color:#F47859"/>
				<stop  offset="0.8099" style="stop-color:#F16171"/>
				<stop  offset="0.9529" style="stop-color:#EE3988"/>
				<stop  offset="1" style="stop-color:#ED2190"/>
			</linearGradient>
			<path style="fill:url(#SVGID_00000069363168099192509540000011768395284235523218_);" d="M15.6,7.6L3.5,28.6
				c-1.6,2.8,0.4,6.4,3.7,6.4h24.2c3.3,0,5.3-3.6,3.7-6.4L23,7.6C21.3,4.8,17.2,4.8,15.6,7.6z"/>
			
				<linearGradient id="SVGID_00000038399281963643049860000007621360598751128983_" gradientUnits="userSpaceOnUse" x1="23.1587" y1="19.7507" x2="24.7132" y2="0.9016" gradientTransform="matrix(1 0 0 -1 0 37.8898)">
				<stop  offset="5.586590e-03" style="stop-color:#EE489A"/>
				<stop  offset="1" style="stop-color:#5351A2"/>
			</linearGradient>
			<path style="fill:url(#SVGID_00000038399281963643049860000007621360598751128983_);" d="M7.2,34.9c0,0,6-0.6,10.6-6.1
				s13.7-10.2,20.4-3.1c2.5,2.6,3.3,5,3.5,6.7c0.2,1.3-0.9,2.5-2.3,2.5L7.2,34.9L7.2,34.9z"/>
		</g>
		
			<linearGradient id="SVGID_00000062910465382394985670000016607350310280057279_" gradientUnits="userSpaceOnUse" x1="27.8999" y1="25.3687" x2="34.5068" y2="35.279" gradientTransform="matrix(1 0 0 -1 0 37.8898)">
			<stop  offset="5.586590e-03" style="stop-color:#EE489A"/>
			<stop  offset="1" style="stop-color:#5351A2"/>
		</linearGradient>
		<path style="fill:url(#SVGID_00000062910465382394985670000016607350310280057279_);" d="M39,5.5c0,0-2.3,0.2-4.1,2.3
			c-1.8,2.1-5.3,3.9-7.8,1.2c-0.9-1-1.3-1.9-1.3-2.5c-0.1-0.5,0.3-1,0.9-1H39z"/>
	</g>
	<g>
		<path class="st4" d="M50.5,13.7c0-3.9,3-6.7,7-6.7c2.2,0,4.1,0.8,5.3,2.3L61,11.1c-0.9-1-2-1.5-3.3-1.5c-2.4,0-4.1,1.7-4.1,4.1
			s1.7,4.1,4.1,4.1c1.3,0,2.4-0.5,3.3-1.5l1.9,1.8c-1.2,1.5-3.1,2.3-5.4,2.3C53.5,20.4,50.5,17.6,50.5,13.7z"/>
		<path class="st4" d="M63.6,15.2c0-3,2.3-5.1,5.5-5.1c3.2,0,5.5,2.1,5.5,5.1s-2.3,5.1-5.5,5.1C65.9,20.4,63.6,18.2,63.6,15.2z
			 M71.6,15.2c0-1.7-1.1-2.8-2.5-2.8c-1.4,0-2.6,1-2.6,2.8s1.1,2.8,2.6,2.8C70.5,18,71.6,17,71.6,15.2z"/>
		<path class="st4" d="M93.3,14.5v5.7h-2.9V15c0-1.6-0.7-2.4-1.9-2.4c-1.3,0-2.2,0.8-2.2,2.6v5h-2.9V15c0-1.6-0.7-2.4-1.9-2.4
			c-1.3,0-2.2,0.8-2.2,2.6v5h-2.9v-10h2.8v1.2c0.7-0.9,1.8-1.3,3.1-1.3c1.4,0,2.6,0.5,3.3,1.6c0.8-1,2.1-1.6,3.6-1.6
			C91.6,10.1,93.3,11.5,93.3,14.5z"/>
		<path class="st4" d="M106.8,15.2c0,3.1-2.2,5.1-5,5.1c-1.2,0-2.3-0.4-3-1.2v4.6h-2.9V10.3h2.8v1.2c0.7-0.9,1.8-1.3,3.1-1.3
			C104.6,10.1,106.8,12.1,106.8,15.2z M103.8,15.2c0-1.7-1.1-2.8-2.5-2.8c-1.4,0-2.5,1-2.5,2.8s1.1,2.8,2.5,2.8
			C102.7,18,103.8,17,103.8,15.2z"/>
		<path class="st4" d="M117.3,14.5v5.7h-2.7V19c-0.5,0.9-1.6,1.4-3,1.4c-2.3,0-3.7-1.3-3.7-3c0-1.8,1.2-3,4.3-3h2.3
			c0-1.2-0.7-2-2.3-2c-1.1,0-2.1,0.4-2.9,0.9l-1-2c1.1-0.8,2.7-1.2,4.3-1.2C115.6,10.1,117.3,11.5,117.3,14.5z M114.4,17.1v-1h-2
			c-1.4,0-1.8,0.5-1.8,1.2c0,0.7,0.6,1.2,1.6,1.2C113.3,18.4,114.1,18,114.4,17.1z"/>
		<path class="st4" d="M130.1,14.5v5.7h-2.9V15c0-1.6-0.7-2.4-2-2.4c-1.4,0-2.4,0.9-2.4,2.7v4.9h-2.9v-10h2.8v1.2
			c0.8-0.9,1.9-1.3,3.3-1.3C128.3,10.1,130.1,11.5,130.1,14.5z"/>
		<path class="st4" d="M142.4,10.3l-4.5,10.6c-1,2.4-2.3,3.1-4.1,3.1c-1,0-2.1-0.3-2.8-0.9l1.1-2.1c0.4,0.4,1.1,0.6,1.6,0.6
			c0.8,0,1.2-0.4,1.6-1.2l0-0.1l-4.3-10h3l2.8,6.8l2.8-6.8L142.4,10.3L142.4,10.3z"/>
	</g>
	<g>
		<g>
			<path class="st4" d="M51.4,25H53c1.2,0,2.1,0.8,2.1,1.9s-0.8,1.9-2.1,1.9h-1.6V25z M53,28.5c1,0,1.7-0.6,1.7-1.6S54,25.3,53,25.3
				h-1.1v3.1H53z"/>
			<path class="st4" d="M58.9,27.5h-2.4c0,0.6,0.5,1,1.1,1c0.4,0,0.7-0.1,0.9-0.4l0.2,0.3c-0.3,0.3-0.7,0.5-1.1,0.5
				c-0.9,0-1.5-0.6-1.5-1.5c0-0.9,0.6-1.5,1.4-1.5s1.4,0.6,1.4,1.5C58.9,27.4,58.9,27.5,58.9,27.5z M56.5,27.2h2.1c0-0.6-0.5-1-1-1
				C57,26.3,56.6,26.6,56.5,27.2z"/>
			<path class="st4" d="M65.1,27.2v1.7h-0.4v-1.6c0-0.6-0.3-0.9-0.8-0.9c-0.6,0-1,0.4-1,1v1.5h-0.4v-1.6c0-0.6-0.3-0.9-0.8-0.9
				c-0.6,0-1,0.4-1,1v1.5h-0.4v-2.9h0.4v0.5c0.2-0.3,0.6-0.6,1.1-0.6c0.5,0,0.9,0.2,1,0.6c0.2-0.4,0.6-0.6,1.1-0.6
				C64.6,25.9,65.1,26.3,65.1,27.2z"/>
			<path class="st4" d="M66.4,27.4c0-0.9,0.6-1.5,1.5-1.5s1.5,0.6,1.5,1.5c0,0.9-0.6,1.5-1.5,1.5S66.4,28.2,66.4,27.4z M69,27.4
				c0-0.7-0.5-1.1-1.1-1.1c-0.6,0-1.1,0.5-1.1,1.1c0,0.7,0.5,1.1,1.1,1.1S69,28.1,69,27.4z"/>
			<path class="st4" d="M72.4,26.9c0-1.1,0.9-2,2-2c0.6,0,1.1,0.2,1.4,0.6l-0.3,0.3c-0.3-0.3-0.7-0.5-1.1-0.5
				c-0.9,0-1.6,0.7-1.6,1.6s0.7,1.6,1.6,1.6c0.4,0,0.8-0.1,1.1-0.5l0.3,0.3c-0.3,0.4-0.8,0.6-1.4,0.6C73.3,28.9,72.4,28,72.4,26.9z"
				/>
			<path class="st4" d="M76.8,27.4c0-0.9,0.6-1.5,1.5-1.5c0.8,0,1.5,0.6,1.5,1.5c0,0.9-0.6,1.5-1.5,1.5
				C77.4,28.9,76.8,28.2,76.8,27.4z M79.3,27.4c0-0.7-0.5-1.1-1.1-1.1s-1.1,0.5-1.1,1.1c0,0.7,0.5,1.1,1.1,1.1
				C78.9,28.5,79.3,28.1,79.3,27.4z"/>
			<path class="st4" d="M85.9,27.2v1.7h-0.4v-1.6c0-0.6-0.3-0.9-0.8-0.9c-0.6,0-1,0.4-1,1v1.5h-0.4v-1.6c0-0.6-0.3-0.9-0.8-0.9
				c-0.6,0-1,0.4-1,1v1.5h-0.4v-2.9h0.4v0.5c0.2-0.3,0.6-0.6,1.1-0.6c0.5,0,0.9,0.2,1,0.6c0.2-0.4,0.6-0.6,1.1-0.6
				C85.4,25.9,85.9,26.3,85.9,27.2z"/>
			<path class="st4" d="M90.4,27.4c0,0.9-0.6,1.5-1.4,1.5c-0.5,0-0.9-0.2-1.1-0.6v1.6h-0.4v-4h0.4v0.6c0.2-0.4,0.6-0.6,1.1-0.6
				C89.8,25.9,90.4,26.5,90.4,27.4z M90,27.4c0-0.7-0.5-1.1-1.1-1.1c-0.6,0-1.1,0.5-1.1,1.1c0,0.7,0.5,1.1,1.1,1.1
				C89.5,28.5,90,28.1,90,27.4z"/>
			<path class="st4" d="M93.9,27v1.8h-0.4v-0.5c-0.2,0.3-0.5,0.5-1,0.5c-0.7,0-1.1-0.3-1.1-0.8c0-0.4,0.3-0.8,1.1-0.8h0.9V27
				c0-0.5-0.3-0.8-0.8-0.8c-0.4,0-0.7,0.1-1,0.3l-0.2-0.3c0.3-0.2,0.7-0.4,1.2-0.4C93.5,25.9,93.9,26.3,93.9,27z M93.5,28v-0.5h-0.9
				c-0.6,0-0.7,0.2-0.7,0.5c0,0.3,0.3,0.5,0.7,0.5C93.1,28.6,93.4,28.3,93.5,28z"/>
			<path class="st4" d="M98.2,27.2v1.7h-0.4v-1.6c0-0.6-0.3-0.9-0.9-0.9c-0.6,0-1,0.4-1,1v1.5h-0.4v-2.9h0.4v0.5
				c0.2-0.4,0.6-0.6,1.1-0.6C97.7,25.9,98.2,26.3,98.2,27.2z"/>
			<path class="st4" d="M102.2,25.9l-1.4,3.2c-0.2,0.6-0.6,0.7-1,0.7c-0.3,0-0.5-0.1-0.7-0.3l0.2-0.3c0.1,0.1,0.3,0.2,0.5,0.2
				c0.3,0,0.4-0.1,0.6-0.5l0.1-0.3l-1.3-2.9h0.4l1.1,2.5l1.1-2.5C101.8,25.9,102.2,25.9,102.2,25.9z"/>
			<path class="st4" d="M105.4,25h0.4v3.5h2.2v0.4h-2.6V25z"/>
			<path class="st4" d="M108.7,27.4c0-0.9,0.6-1.5,1.5-1.5s1.5,0.6,1.5,1.5c0,0.9-0.6,1.5-1.5,1.5S108.7,28.2,108.7,27.4z
				 M111.3,27.4c0-0.7-0.5-1.1-1.1-1.1c-0.6,0-1.1,0.5-1.1,1.1c0,0.7,0.5,1.1,1.1,1.1S111.3,28.1,111.3,27.4z"/>
			<path class="st4" d="M115.7,25.9v2.5c0,1-0.5,1.4-1.4,1.4c-0.5,0-1-0.2-1.3-0.4l0.2-0.3c0.3,0.2,0.7,0.4,1.1,0.4
				c0.7,0,1.1-0.3,1.1-1.1v-0.4c-0.2,0.4-0.7,0.6-1.1,0.6c-0.8,0-1.5-0.6-1.5-1.4c0-0.8,0.6-1.4,1.5-1.4c0.5,0,0.9,0.2,1.1,0.6v-0.6
				H115.7z M115.3,27.3c0-0.6-0.5-1.1-1.1-1.1c-0.6,0-1.1,0.4-1.1,1.1s0.5,1.1,1.1,1.1C114.9,28.4,115.3,27.9,115.3,27.3z"/>
			<path class="st4" d="M117.1,27.4c0-0.9,0.6-1.5,1.5-1.5c0.8,0,1.5,0.6,1.5,1.5c0,0.9-0.6,1.5-1.5,1.5
				C117.7,28.9,117.1,28.2,117.1,27.4z M119.6,27.4c0-0.7-0.5-1.1-1.1-1.1c-0.6,0-1.1,0.5-1.1,1.1c0,0.7,0.5,1.1,1.1,1.1
				C119.2,28.5,119.6,28.1,119.6,27.4z"/>
		</g>
	</g>
</g>
</svg>
