<?xml version="1.0" encoding="utf-8"?>
<!-- Generator: Adobe Illustrator 27.7.0, SVG Export Plug-In . SVG Version: 6.00 Build 0)  -->
<svg version="1.1" id="logo-50" xmlns="http://www.w3.org/2000/svg" xmlns:xlink="http://www.w3.org/1999/xlink" x="0px" y="0px"
	 viewBox="0 0 98.9 38" style="enable-background:new 0 0 98.9 38;" xml:space="preserve">
<style type="text/css">
	.st0{fill:#7F151A;}
	.st1{fill:#7D7D7D;}
</style>
<g>
	<g>
		<polygon class="st0" points="62.5,26 62.5,13.2 74.5,13.2 74.5,19.6 73.4,19.6 73.4,14.3 63.6,14.3 63.6,26 		"/>
		<polygon class="st0" points="92.2,27.6 90.6,26 88.8,26 87.2,27.6 85.3,27.6 83.7,26 78.4,26 78.4,21.7 71.3,21.7 71.3,26 
			65.2,26 65.2,24.9 70.2,24.9 70.2,20.7 79.5,20.7 79.5,24.9 84.1,24.9 85.7,26.5 86.8,26.5 88.4,24.9 91,24.9 92.7,26.5 
			93.3,26.5 94.2,25.6 95,26.4 93.7,27.6 92.2,27.6 		"/>
		<path class="st0" d="M42.5,6.2"/>
		<path class="st0" d="M46.2,11.1H48V9h8.4v3.2h-1.1V10h-6.2v2.1h-2.9V11.1z"/>
		<polygon class="st0" points="41.8,4.7 40.4,6 40.4,11.6 41.5,11.6 41.5,6.5 42.3,5.8 44.4,5.8 44.4,4.7 		"/>
		<rect x="44" y="4.7" class="st0" width="1.1" height="21.3"/>
		<path class="st0" d="M55.2,26h1.1l0,0c0-5.4,1.1-10.5,3-14.6c1.8-3.7,4.2-6.3,7-7.6V2.6C59.9,5.3,55.2,14.5,55.2,26z"/>
		<path class="st0" d="M65.2,3.6v8.5h1.1V3.6H65.2z"/>
		<polygon class="st0" points="25.3,24.9 14,24.9 12.4,26.5 11.3,26.5 9.7,24.9 7,24.9 5.4,26.5 4.8,26.5 3.9,25.6 3.1,26.4 
			4.3,27.6 5.9,27.6 7.5,26 9.3,26 10.9,27.6 12.8,27.6 14.4,26 25.3,26 		"/>
		<path class="st0" d="M21.4,20.7h-3.8v3.2h1.1v-2.1h3.8v-4h-1.1V20.7z M29.2,20.7v-3h-1.1v4H31v-1.1H29.2z"/>
		<rect x="28.1" y="16" class="st0" width="1.1" height="5.7"/>
		<rect x="21.4" y="16" class="st0" width="1.1" height="5.7"/>
		<path class="st0" d="M25.3,13.2c1.5,0,2.8,1.2,2.8,2.8h1.1c0-2.1-1.7-3.9-3.9-3.9c-2.1,0-3.9,1.7-3.9,3.9h1.1
			C22.5,14.5,23.8,13.2,25.3,13.2z"/>
		<rect x="32.1" y="1.5" class="st0" width="1.1" height="24.5"/>
		<polygon class="st0" points="34.9,2.6 36.1,4.7 36.1,12.1 39.3,17.7 39.3,26 40.4,26 40.4,17.5 37.2,11.9 37.2,4.5 35.5,1.5 
			33,1.5 33,2.6 		"/>
		<path class="st0" d="M40.4,9v3l-1,1.7l0.6,1.1l1.5-2.6V9H40.4z"/>
		<path class="st0" d="M49.1,24.9l-2.9,0V26h4v-8.5H55c0.1-0.4,0.2-0.7,0.3-1.1h-6.2V24.9z"/>
	</g>
	<g>
		<path class="st1" d="M9,36.6L8,34.8H4.5l0.6-1h2.2L5.7,31l-3.3,5.6H1l4.2-7c0.1-0.1,0.2-0.2,0.3-0.3c0.1-0.1,0.2-0.1,0.4-0.1
			c0.1,0,0.3,0,0.4,0.1c0.1,0.1,0.2,0.2,0.3,0.3l4.2,7H9z"/>
		<path class="st1" d="M11.4,36.6v-1.3h5.5c0.3,0,0.6-0.1,0.8-0.3c0.2-0.2,0.3-0.4,0.3-0.7c0-0.3-0.1-0.5-0.3-0.7
			c-0.2-0.2-0.4-0.2-0.8-0.2h-3.3c-0.3,0-0.6-0.1-0.9-0.2c-0.3-0.1-0.5-0.2-0.7-0.4c-0.2-0.2-0.3-0.4-0.4-0.7
			c-0.1-0.3-0.2-0.5-0.2-0.8c0-0.3,0-0.6,0.1-0.8c0.1-0.3,0.2-0.5,0.4-0.6c0.2-0.2,0.4-0.3,0.7-0.4c0.3-0.1,0.6-0.2,1-0.2h5.2v1.3
			h-5.2c-0.3,0-0.5,0.1-0.7,0.2c-0.2,0.2-0.2,0.4-0.2,0.7c0,0.3,0.1,0.5,0.2,0.7c0.2,0.2,0.4,0.2,0.7,0.2h3.3c0.7,0,1.3,0.2,1.7,0.5
			c0.4,0.3,0.6,0.9,0.6,1.6c0,0.3,0,0.6-0.1,0.9c-0.1,0.3-0.2,0.5-0.4,0.7s-0.4,0.3-0.7,0.4c-0.3,0.1-0.6,0.2-1,0.2H11.4z"/>
		<path class="st1" d="M20.2,36.6v-7.3h6.2v1.3h-4.9v6H20.2z M22.4,33.6v-1.1H26v1.1H22.4z"/>
		<path class="st1" d="M30.2,36.6v-1.3h5.5c0.3,0,0.6-0.1,0.8-0.3c0.2-0.2,0.3-0.4,0.3-0.7c0-0.3-0.1-0.5-0.3-0.7
			c-0.2-0.2-0.4-0.2-0.8-0.2h-3.3c-0.3,0-0.6-0.1-0.9-0.2c-0.3-0.1-0.5-0.2-0.7-0.4c-0.2-0.2-0.3-0.4-0.4-0.7
			c-0.1-0.3-0.2-0.5-0.2-0.8c0-0.3,0-0.6,0.1-0.8c0.1-0.3,0.2-0.5,0.4-0.6c0.2-0.2,0.4-0.3,0.7-0.4c0.3-0.1,0.6-0.2,1-0.2h5.2v1.3
			h-5.2c-0.3,0-0.5,0.1-0.7,0.2c-0.2,0.2-0.2,0.4-0.2,0.7c0,0.3,0.1,0.5,0.2,0.7c0.2,0.2,0.4,0.2,0.7,0.2h3.3c0.7,0,1.3,0.2,1.7,0.5
			c0.4,0.3,0.6,0.9,0.6,1.6c0,0.3,0,0.6-0.1,0.9c-0.1,0.3-0.2,0.5-0.4,0.7c-0.2,0.2-0.4,0.3-0.7,0.4c-0.3,0.1-0.6,0.2-1,0.2H30.2z"
			/>
		<path class="st1" d="M39,36.6v-7.3h6.5v1.3h-5.2v4.7h5.2v1.3H39z M41.2,33.4v-1.1h4v1.1H41.2z"/>
		<path class="st1" d="M53.3,36.6l-1.8-2h-2.7v-1.1h3c0.5,0,0.8-0.1,1-0.4c0.2-0.3,0.4-0.6,0.4-1.1s-0.1-0.8-0.4-1.1
			c-0.2-0.2-0.6-0.3-1-0.3h-4v6h-1.3v-7.3h5.2c0.4,0,0.8,0.1,1.1,0.2c0.3,0.1,0.6,0.3,0.8,0.5c0.2,0.2,0.4,0.5,0.5,0.8
			c0.1,0.3,0.2,0.7,0.2,1.1c0,0.6-0.1,1.1-0.4,1.5c-0.3,0.4-0.6,0.7-1.1,0.9l2.2,2.2H53.3z"/>
		<path class="st1" d="M54.5,29.3H56l3.3,5.6l3.3-5.6h1.5l-4.2,7c-0.1,0.1-0.2,0.2-0.3,0.3c-0.1,0.1-0.2,0.1-0.4,0.1
			c-0.1,0-0.3,0-0.4-0.1c-0.1-0.1-0.2-0.2-0.3-0.3L54.5,29.3z"/>
		<path class="st1" d="M64.9,36.6v-7.3h1.3v7.3H64.9z"/>
		<path class="st1" d="M70.9,36.6c-0.5,0-1-0.1-1.4-0.3s-0.8-0.5-1.1-0.8c-0.3-0.3-0.6-0.7-0.7-1.2c-0.2-0.5-0.3-0.9-0.3-1.5
			c0-0.5,0.1-1,0.3-1.5c0.2-0.4,0.4-0.8,0.7-1.1c0.3-0.3,0.7-0.6,1.1-0.7c0.4-0.2,0.9-0.3,1.4-0.3h3.9v1.3h-3.9
			c-0.3,0-0.6,0.1-0.9,0.2c-0.3,0.1-0.5,0.3-0.7,0.5c-0.2,0.2-0.4,0.5-0.5,0.7c-0.1,0.3-0.2,0.6-0.2,1c0,0.3,0.1,0.7,0.2,1
			s0.3,0.5,0.5,0.8c0.2,0.2,0.4,0.4,0.7,0.5s0.6,0.2,0.9,0.2h3.9v1.3H70.9z"/>
		<path class="st1" d="M75.9,36.6v-7.3h1.3v7.3H75.9z"/>
		<path class="st1" d="M81.8,36.6c-0.5,0-1-0.1-1.4-0.3c-0.4-0.2-0.8-0.5-1.1-0.8c-0.3-0.3-0.6-0.7-0.7-1.2
			c-0.2-0.5-0.3-0.9-0.3-1.5c0-0.5,0.1-1,0.3-1.5c0.2-0.4,0.4-0.8,0.7-1.1c0.3-0.3,0.7-0.6,1.1-0.7c0.4-0.2,0.9-0.3,1.4-0.3h1.8
			c0.5,0,1,0.1,1.4,0.3c0.4,0.2,0.8,0.4,1.1,0.7c0.3,0.3,0.6,0.7,0.7,1.1c0.2,0.4,0.3,0.9,0.3,1.4c0,0.5-0.1,1-0.3,1.5
			c-0.2,0.5-0.4,0.8-0.7,1.2c-0.3,0.3-0.7,0.6-1.1,0.8c-0.4,0.2-0.9,0.3-1.4,0.3H81.8z M83.6,35.3c0.3,0,0.6-0.1,0.9-0.2
			s0.5-0.3,0.7-0.5c0.2-0.2,0.4-0.5,0.5-0.8c0.1-0.3,0.2-0.6,0.2-1s-0.1-0.7-0.2-0.9c-0.1-0.3-0.3-0.5-0.5-0.7
			c-0.2-0.2-0.4-0.4-0.7-0.5c-0.3-0.1-0.6-0.2-0.9-0.2h-1.8c-0.3,0-0.6,0.1-0.9,0.2c-0.3,0.1-0.5,0.3-0.7,0.5
			c-0.2,0.2-0.4,0.5-0.5,0.7c-0.1,0.3-0.2,0.6-0.2,1c0,0.3,0.1,0.7,0.2,1s0.3,0.5,0.5,0.8c0.2,0.2,0.4,0.4,0.7,0.5s0.6,0.2,0.9,0.2
			H83.6z"/>
		<path class="st1" d="M88.2,36.6v-1.3h5.5c0.3,0,0.6-0.1,0.8-0.3c0.2-0.2,0.3-0.4,0.3-0.7c0-0.3-0.1-0.5-0.3-0.7
			c-0.2-0.2-0.4-0.2-0.8-0.2h-3.3c-0.3,0-0.6-0.1-0.9-0.2c-0.3-0.1-0.5-0.2-0.7-0.4c-0.2-0.2-0.3-0.4-0.4-0.7
			c-0.1-0.3-0.2-0.5-0.2-0.8c0-0.3,0-0.6,0.1-0.8c0.1-0.3,0.2-0.5,0.4-0.6c0.2-0.2,0.4-0.3,0.7-0.4c0.3-0.1,0.6-0.2,1-0.2h5.2v1.3
			h-5.2c-0.3,0-0.5,0.1-0.7,0.2c-0.2,0.2-0.2,0.4-0.2,0.7c0,0.3,0.1,0.5,0.2,0.7c0.2,0.2,0.4,0.2,0.7,0.2h3.3c0.7,0,1.3,0.2,1.7,0.5
			c0.4,0.3,0.6,0.9,0.6,1.6c0,0.3,0,0.6-0.1,0.9c-0.1,0.3-0.2,0.5-0.4,0.7c-0.2,0.2-0.4,0.3-0.7,0.4c-0.3,0.1-0.6,0.2-1,0.2H88.2z"
			/>
	</g>
</g>
</svg>
