<?xml version="1.0" encoding="utf-8"?>
<!-- Generator: Adobe Illustrator 27.7.0, SVG Export Plug-In . SVG Version: 6.00 Build 0)  -->
<svg version="1.1" id="Layer_1" xmlns="http://www.w3.org/2000/svg" xmlns:xlink="http://www.w3.org/1999/xlink" x="0px" y="0px"
	 viewBox="0 0 263.89 62.7" style="enable-background:new 0 0 263.89 62.7;" xml:space="preserve">
<style type="text/css">
	.st0{fill:url(#SVGID_1_);}
	.st1{fill:url(#SVGID_00000144321661690851609300000012323014691804512170_);}
	.st2{fill:url(#SVGID_00000054265324523525776270000017210061997432509364_);}
	.st3{fill:url(#SVGID_00000031894425698300501080000016442147244097100223_);}
	.st4{fill:#FFFFFF;}
</style>
<g>
	<g>
		<linearGradient id="SVGID_1_" gradientUnits="userSpaceOnUse" x1="78.1145" y1="-7.8308" x2="63.5262" y2="47.6986">
			<stop  offset="0" style="stop-color:#FFE200"/>
			<stop  offset="0.4469" style="stop-color:#F7911E"/>
			<stop  offset="0.4943" style="stop-color:#F78E26"/>
			<stop  offset="0.5761" style="stop-color:#F6863C"/>
			<stop  offset="0.6827" style="stop-color:#F47859"/>
			<stop  offset="0.8099" style="stop-color:#F16171"/>
			<stop  offset="0.9529" style="stop-color:#EE3988"/>
			<stop  offset="1" style="stop-color:#ED2190"/>
		</linearGradient>
		<path class="st0" d="M75.82,53.78H60.59V6H71.1c2.61,0,4.72,2.11,4.72,4.72V53.78z"/>
		<g>
			
				<linearGradient id="SVGID_00000018207127154242237750000001181335602415101098_" gradientUnits="userSpaceOnUse" x1="21.3047" y1="0.486" x2="37.8929" y2="60.8389">
				<stop  offset="0" style="stop-color:#FFE200"/>
				<stop  offset="0.4469" style="stop-color:#F7911E"/>
				<stop  offset="0.4943" style="stop-color:#F78E26"/>
				<stop  offset="0.5761" style="stop-color:#F6863C"/>
				<stop  offset="0.6827" style="stop-color:#F47859"/>
				<stop  offset="0.8099" style="stop-color:#F16171"/>
				<stop  offset="0.9529" style="stop-color:#EE3988"/>
				<stop  offset="1" style="stop-color:#ED2190"/>
			</linearGradient>
			<path style="fill:url(#SVGID_00000018207127154242237750000001181335602415101098_);" d="M28.7,9.87L6.74,47.92
				c-2.98,5.16,0.74,11.6,6.7,11.6h43.93c5.96,0,9.68-6.45,6.7-11.6L42.1,9.87C39.12,4.71,31.68,4.71,28.7,9.87z"/>
			
				<linearGradient id="SVGID_00000016076014137735161250000004446206945165627057_" gradientUnits="userSpaceOnUse" x1="42.4436" y1="28.9957" x2="45.2671" y2="63.2311">
				<stop  offset="5.586590e-03" style="stop-color:#EE489A"/>
				<stop  offset="1" style="stop-color:#5351A2"/>
			</linearGradient>
			<path style="fill:url(#SVGID_00000016076014137735161250000004446206945165627057_);" d="M13.44,59.52
				c0,0,10.87-1.16,19.34-11.04c8.47-9.88,24.94-18.47,36.97-5.65c4.5,4.8,5.98,9.07,6.36,12.09c0.31,2.45-1.63,4.59-4.09,4.59
				H13.44z"/>
		</g>
		
			<linearGradient id="SVGID_00000111875975137277214400000005741271375840513725_" gradientUnits="userSpaceOnUse" x1="51.0623" y1="18.7926" x2="63.0624" y2="0.7926">
			<stop  offset="5.586590e-03" style="stop-color:#EE489A"/>
			<stop  offset="1" style="stop-color:#5351A2"/>
		</linearGradient>
		<path style="fill:url(#SVGID_00000111875975137277214400000005741271375840513725_);" d="M71.23,6c0,0-4.16,0.44-7.41,4.23
			c-3.25,3.79-9.56,7.08-14.16,2.16c-1.72-1.84-2.29-3.48-2.44-4.63C47.11,6.83,47.85,6,48.79,6H71.23z"/>
	</g>
	<g>
		<path class="st4" d="M92.16,20.99c0-7.1,5.45-12.17,12.78-12.17c4.07,0,7.47,1.48,9.69,4.17l-3.5,3.23
			c-1.58-1.82-3.57-2.76-5.92-2.76c-4.41,0-7.53,3.09-7.53,7.53c0,4.44,3.13,7.53,7.53,7.53c2.35,0,4.34-0.94,5.92-2.79l3.5,3.23
			c-2.22,2.72-5.62,4.2-9.72,4.2C97.6,33.17,92.16,28.09,92.16,20.99z"/>
		<path class="st4" d="M115.93,23.72c0-5.45,4.2-9.32,9.96-9.32c5.75,0,9.92,3.87,9.92,9.32c0,5.45-4.17,9.32-9.92,9.32
			C120.13,33.03,115.93,29.16,115.93,23.72z M130.49,23.72c0-3.13-1.98-5.01-4.61-5.01c-2.62,0-4.64,1.88-4.64,5.01
			c0,3.13,2.02,5.01,4.64,5.01C128.51,28.73,130.49,26.84,130.49,23.72z"/>
		<path class="st4" d="M169.87,22.4v10.36h-5.25v-9.55c0-2.93-1.31-4.27-3.43-4.27c-2.35,0-4,1.51-4,4.74v9.08h-5.25v-9.55
			c0-2.93-1.24-4.27-3.43-4.27c-2.32,0-3.97,1.51-3.97,4.74v9.08h-5.25V14.67h5.01v2.09c1.34-1.55,3.36-2.35,5.68-2.35
			c2.52,0,4.67,0.98,5.95,2.96c1.45-1.85,3.8-2.96,6.52-2.96C166.78,14.4,169.87,16.89,169.87,22.4z"/>
		<path class="st4" d="M194.28,23.72c0,5.68-3.93,9.32-9.01,9.32c-2.25,0-4.1-0.71-5.45-2.19v8.44h-5.25V14.67h5.01v2.09
			c1.31-1.58,3.26-2.35,5.68-2.35C190.35,14.4,194.28,18.03,194.28,23.72z M188.97,23.72c0-3.13-1.98-5.01-4.61-5.01
			s-4.61,1.88-4.61,5.01c0,3.13,1.98,5.01,4.61,5.01S188.97,26.84,188.97,23.72z"/>
		<path class="st4" d="M213.48,22.44v10.32h-4.91v-2.25c-0.98,1.65-2.86,2.52-5.52,2.52c-4.24,0-6.76-2.35-6.76-5.48
			c0-3.19,2.25-5.41,7.77-5.41h4.17c0-2.25-1.35-3.56-4.17-3.56c-1.92,0-3.9,0.64-5.21,1.68l-1.88-3.67
			c1.98-1.41,4.91-2.19,7.8-2.19C210.29,14.4,213.48,16.96,213.48,22.44z M208.24,27.04V25.2h-3.6c-2.46,0-3.23,0.91-3.23,2.12
			c0,1.31,1.11,2.19,2.96,2.19C206.12,29.5,207.63,28.69,208.24,27.04z"/>
		<path class="st4" d="M236.72,22.4v10.36h-5.25v-9.55c0-2.93-1.35-4.27-3.67-4.27c-2.52,0-4.34,1.55-4.34,4.88v8.95h-5.25V14.67
			h5.01v2.12c1.41-1.55,3.53-2.39,5.99-2.39C233.49,14.4,236.72,16.89,236.72,22.4z"/>
		<path class="st4" d="M259.08,14.67l-8.17,19.2c-1.75,4.37-4.24,5.68-7.5,5.68c-1.85,0-3.87-0.61-5.04-1.65l1.92-3.73
			c0.81,0.71,1.92,1.14,2.96,1.14c1.45,0,2.25-0.64,2.96-2.25l0.07-0.17l-7.84-18.23h5.42l5.08,12.28l5.11-12.28H259.08z"/>
	</g>
	<g>
		<g>
			<path class="st4" d="M93.75,41.43h2.85c2.24,0,3.75,1.44,3.75,3.5c0,2.06-1.51,3.5-3.75,3.5h-2.85V41.43z M96.56,47.78
				c1.86,0,3.06-1.18,3.06-2.86s-1.2-2.86-3.06-2.86h-2.07v5.72H96.56z"/>
			<path class="st4" d="M107.44,46.01h-4.4c0.08,1.1,0.92,1.83,2.07,1.83c0.64,0,1.21-0.23,1.61-0.69l0.4,0.46
				c-0.47,0.56-1.2,0.86-2.03,0.86c-1.64,0-2.76-1.12-2.76-2.68s1.09-2.67,2.57-2.67s2.55,1.09,2.55,2.67
				C107.45,45.85,107.44,45.93,107.44,46.01z M103.04,45.48h3.73c-0.09-1.03-0.84-1.75-1.87-1.75
				C103.88,43.73,103.13,44.45,103.04,45.48z"/>
			<path class="st4" d="M118.57,45.37v3.05h-0.71v-2.98c0-1.11-0.56-1.68-1.51-1.68c-1.08,0-1.76,0.7-1.76,1.9v2.76h-0.71v-2.98
				c0-1.11-0.56-1.68-1.52-1.68c-1.07,0-1.76,0.7-1.76,1.9v2.76h-0.71v-5.26h0.68v0.96c0.37-0.63,1.05-1,1.93-1
				c0.87,0,1.55,0.37,1.87,1.11c0.38-0.68,1.13-1.11,2.08-1.11C117.73,43.12,118.57,43.86,118.57,45.37z"/>
			<path class="st4" d="M121,45.79c0-1.56,1.14-2.67,2.68-2.67s2.67,1.11,2.67,2.67s-1.13,2.68-2.67,2.68S121,47.35,121,45.79z
				 M125.63,45.79c0-1.23-0.83-2.05-1.95-2.05c-1.12,0-1.96,0.82-1.96,2.05c0,1.23,0.84,2.05,1.96,2.05
				C124.8,47.84,125.63,47.02,125.63,45.79z"/>
			<path class="st4" d="M131.95,44.92c0-2.05,1.56-3.56,3.67-3.56c1.02,0,1.94,0.34,2.56,1.02l-0.47,0.47
				c-0.57-0.58-1.27-0.83-2.07-0.83c-1.69,0-2.96,1.24-2.96,2.9s1.27,2.9,2.96,2.9c0.8,0,1.5-0.25,2.07-0.84l0.47,0.47
				c-0.62,0.68-1.54,1.03-2.57,1.03C133.51,48.48,131.95,46.97,131.95,44.92z"/>
			<path class="st4" d="M139.85,45.79c0-1.56,1.14-2.67,2.68-2.67s2.67,1.11,2.67,2.67s-1.13,2.68-2.67,2.68
				S139.85,47.35,139.85,45.79z M144.48,45.79c0-1.23-0.83-2.05-1.95-2.05c-1.12,0-1.96,0.82-1.96,2.05c0,1.23,0.84,2.05,1.96,2.05
				C143.65,47.84,144.48,47.02,144.48,45.79z"/>
			<path class="st4" d="M156.32,45.37v3.05h-0.71v-2.98c0-1.11-0.56-1.68-1.51-1.68c-1.08,0-1.76,0.7-1.76,1.9v2.76h-0.71v-2.98
				c0-1.11-0.56-1.68-1.52-1.68c-1.07,0-1.76,0.7-1.76,1.9v2.76h-0.71v-5.26h0.68v0.96c0.37-0.63,1.05-1,1.93-1
				c0.87,0,1.55,0.37,1.87,1.11c0.38-0.68,1.13-1.11,2.08-1.11C155.48,43.12,156.32,43.86,156.32,45.37z"/>
			<path class="st4" d="M164.59,45.79c0,1.6-1.12,2.68-2.62,2.68c-0.84,0-1.56-0.36-2-1.04v2.93h-0.71v-7.2h0.68v1.04
				c0.43-0.7,1.16-1.08,2.03-1.08C163.47,43.12,164.59,44.2,164.59,45.79z M163.88,45.79c0-1.22-0.85-2.05-1.96-2.05
				c-1.12,0-1.96,0.83-1.96,2.05c0,1.23,0.84,2.05,1.96,2.05C163.03,47.84,163.88,47.02,163.88,45.79z"/>
			<path class="st4" d="M170.98,45.16v3.26h-0.68V47.6c-0.32,0.54-0.94,0.87-1.81,0.87c-1.19,0-1.92-0.62-1.92-1.53
				c0-0.81,0.52-1.49,2.03-1.49h1.67v-0.32c0-0.9-0.51-1.39-1.49-1.39c-0.68,0-1.32,0.24-1.75,0.62l-0.32-0.53
				c0.53-0.45,1.31-0.71,2.14-0.71C170.21,43.12,170.98,43.8,170.98,45.16z M170.27,46.84v-0.86h-1.65c-1.02,0-1.35,0.4-1.35,0.94
				c0,0.61,0.49,0.99,1.33,0.99C169.4,47.91,169.99,47.53,170.27,46.84z"/>
			<path class="st4" d="M178.75,45.37v3.05h-0.71v-2.98c0-1.11-0.58-1.68-1.58-1.68c-1.13,0-1.84,0.7-1.84,1.9v2.76h-0.71v-5.26
				h0.68v0.97c0.38-0.64,1.09-1.01,2-1.01C177.87,43.12,178.75,43.86,178.75,45.37z"/>
			<path class="st4" d="M186,43.16l-2.63,5.89c-0.44,1.03-1,1.36-1.75,1.36c-0.49,0-0.96-0.16-1.28-0.48l0.33-0.53
				c0.26,0.26,0.58,0.4,0.96,0.4c0.47,0,0.79-0.22,1.09-0.88l0.23-0.51l-2.35-5.25h0.74l1.98,4.47l1.98-4.47H186z"/>
			<path class="st4" d="M191.77,41.43h0.74v6.36h3.92v0.64h-4.66V41.43z"/>
			<path class="st4" d="M197.9,45.79c0-1.56,1.14-2.67,2.68-2.67c1.54,0,2.67,1.11,2.67,2.67s-1.13,2.68-2.67,2.68
				C199.04,48.47,197.9,47.35,197.9,45.79z M202.53,45.79c0-1.23-0.83-2.05-1.95-2.05c-1.12,0-1.96,0.82-1.96,2.05
				c0,1.23,0.84,2.05,1.96,2.05C201.7,47.84,202.53,47.02,202.53,45.79z"/>
			<path class="st4" d="M210.57,43.16v4.62c0,1.81-0.89,2.63-2.63,2.63c-0.96,0-1.9-0.29-2.45-0.81l0.36-0.54
				c0.5,0.45,1.26,0.72,2.07,0.72c1.33,0,1.94-0.61,1.94-1.91V47.2c-0.44,0.67-1.19,1.02-2.05,1.02c-1.5,0-2.64-1.05-2.64-2.56
				c0-1.51,1.14-2.54,2.64-2.54c0.88,0,1.64,0.36,2.08,1.05v-1.01H210.57z M209.88,45.66c0-1.14-0.84-1.92-2-1.92
				s-1.99,0.78-1.99,1.92c0,1.14,0.83,1.93,1.99,1.93S209.88,46.8,209.88,45.66z"/>
			<path class="st4" d="M213.03,45.79c0-1.56,1.14-2.67,2.68-2.67s2.67,1.11,2.67,2.67s-1.13,2.68-2.67,2.68
				S213.03,47.35,213.03,45.79z M217.66,45.79c0-1.23-0.83-2.05-1.95-2.05c-1.12,0-1.96,0.82-1.96,2.05c0,1.23,0.84,2.05,1.96,2.05
				C216.83,47.84,217.66,47.02,217.66,45.79z"/>
		</g>
	</g>
</g>
</svg>
