<?xml version="1.0" encoding="utf-8"?>
<!-- Generator: Adobe Illustrator 27.7.0, SVG Export Plug-In . SVG Version: 6.00 Build 0)  -->
<svg version="1.1" id="Layer_1" xmlns="http://www.w3.org/2000/svg" xmlns:xlink="http://www.w3.org/1999/xlink" x="0px" y="0px"
	 viewBox="0 0 1872.66 1291.98" style="enable-background:new 0 0 1872.66 1291.98;" xml:space="preserve">
<style type="text/css">
	.st0{fill:#212529;}
	.st1{fill:#FFFFFF;}
	.st2{fill:#5DABCE;}
	.st3{fill:#0F82AA;}
	.st4{fill:#FF8B61;}
	.st5{fill:#FFDDBF;}
	.st6{fill:#E37970;}
	.st7{fill:#F36C48;}
	.st8{fill:#D80F40;}
	.st9{fill:#5E0A0A;}
	.st10{fill:#FFA412;}
	.st11{fill:#C40038;}
	.st12{fill:#F98F00;}
	.st13{fill:#EFEDEE;}
	.st14{fill:#E5E5E5;}
	.st15{fill:#AFCDFB;}
	.st16{fill:#D8D8D8;}
	.st17{fill:#FFAB2F;}
</style>
<rect class="st0" width="1872.66" height="1291.98"/>
<g>
	<path class="st1" d="M1593.52,54.84c119.32,23.26,129.3,42.46,150.66,107.33l21.75,66.08c41.79,138.01,51.36,283.78,27.98,426.07
		l-92.63,563.58c-4.46,27.14-27.88,47.08-55.38,47.15c-23.11,0.06-46.3,0.12-69.51,0.17c-30.15,0.08-60.34,0.15-90.47,0.23
		c-6.8,0.02-13.6,0.04-20.39,0.06h-0.01c-14.81,0.03-29.6,0.07-44.35,0.1c-398.61,0.93-773.06,1.5-874.77,0.67
		c-12.18-0.1-24.22-1.25-36.08-3.36c-5.79-1.03-11.55-2.29-17.25-3.78c-4.35-1.12-8.68-2.38-12.98-3.76
		c-7.03-2.25-13.99-4.85-20.83-7.75c-0.52-0.22-1.04-0.45-1.55-0.67c-192.7-82.99-307.02-409.82-84.63-512.15
		c10.82-4.98,21.61-10.1,32.34-15.37c16.46-8.09,32.75-16.48,48.65-25.15c1.98-1.08,3.95-2.16,5.92-3.25
		c1.21-0.67,2.42-1.34,3.64-2.02c2.97-1.66,5.93-3.31,8.86-4.99c0.93-0.52,1.85-1.05,2.78-1.58c9.95-5.69,19.68-11.48,29.18-17.36
		c9.12-5.64,18.01-11.37,26.62-17.16c8.9-5.97,17.51-12.03,25.76-18.12c0.78-0.58,1.55-1.16,2.33-1.74
		c2.92-2.18,5.79-4.36,8.62-6.56c2.02-1.57,4.03-3.15,6.01-4.72c12.97-10.37,24.84-20.87,35.37-31.41
		c8.83-8.84,16.69-17.72,23.47-26.61c1.24-1.63,2.46-3.26,3.62-4.88c22.93-31.96,31.3-63.82,18.21-93.77
		c-21.2-48.51-27.81-147.25,27.21-237.12c5.4-8.84,11.41-17.6,18.07-26.21c41.83-54.22,109.09-102.82,212.92-131.76
		C1151.01-1.41,1360.04,9.33,1593.52,54.84z"/>
	<g>
		<rect x="669.96" y="161.64" class="st2" width="738.46" height="520.8"/>
		<rect x="695.53" y="188.71" class="st0" width="687.33" height="466.66"/>
		<path class="st2" d="M1240.04,1241.25h-16.21l-101.3-35.01c-43.12-14.91-72.05-55.51-72.05-101.14V674.42
			c0-6.07-4.67-11.3-10.73-11.59c-6.48-0.31-11.83,4.86-11.83,11.27v430.99c0,45.63-28.93,86.24-72.05,101.14l-101.31,35.02H836.1
			c-6.07,0-11.3,4.67-11.59,10.73c-0.31,6.48,4.86,11.83,11.27,11.83h20.59c0.03,0,0.05,0,0.08,0c0.02,0,0.05,0,0.07,0h45.16
			c5.96,0,11.11-4.51,11.53-10.46c0.21-2.91-0.7-5.59-2.33-7.7l74.44-25.73c34.9-12.06,72.84-12.06,107.74,0l72.7,25.13
			c-1.85,2.09-2.96,4.86-2.85,7.89c0.22,6.12,5.46,10.87,11.59,10.87h47.36c0.02,0,0.05,0,0.07,0c0.03,0,0.05,0,0.08,0h18.35
			c6.41,0,11.57-5.35,11.27-11.83C1251.34,1245.92,1246.11,1241.25,1240.04,1241.25z"/>
		<rect x="1408.43" y="161.64" class="st3" width="9.78" height="520.8"/>
		<rect x="1027.92" y="682.44" class="st3" width="22.56" height="20.93"/>
		<g>
			<path class="st1" d="M1286.49,539.81v62.31h30.7v-62.31H1286.49z M1316.31,601.24h-28.94v-60.56h28.94V601.24z"/>
			<path class="st1" d="M1295.89,602.12H877.5c-0.24,0-0.44-0.2-0.44-0.44c0-0.24,0.2-0.44,0.44-0.44h417.52V481.42h-34.71V342.71
				h-33.83v75.14h-28.1v27.65h-49.82v-16.06h-21.31V365.7h-57.02V257.65L1026.02,243v71.68h-11.16v-53.76l-44.21,16.73v63.42h-41.74
				v-46.17h-42.83v46.17h-8.15v26.85h-34.82v91.6c0,0.24-0.2,0.44-0.44,0.44c-0.24,0-0.44-0.2-0.44-0.44v-92.48h34.82V340.2h8.15
				v-46.17h44.58v46.17h39.98v-63.15l45.97-17.4v54.15h9.4v-72.02l45.96,15.23v107.8h57.02v63.75h21.31v16.06h48.06v-27.65h28.1
				v-75.14h35.59v138.71h34.71V602.12z"/>
			<path class="st1" d="M1033.07,262.36v12.01h31.29v-12.01H1033.07z M1063.49,273.5h-29.53v-10.27h29.53V273.5z"/>
			<path class="st1" d="M1033.07,283.28v12.02h31.29v-12.02H1033.07z M1063.49,294.42h-29.53v-10.26h29.53V294.42z"/>
			<path class="st1" d="M1033.07,302.12v12.01h31.29v-12.01H1033.07z M1063.49,313.25h-29.53v-10.27h29.53V313.25z"/>
			<g>
				<path class="st1" d="M1232.17,392.45v18.07h29v-18.07H1232.17z M1260.31,409.64h-27.25v-16.31h27.25V409.64z"/>
				<path class="st1" d="M1225.29,445.23v18.07h35.89v-18.07H1225.29z M1260.31,462.42h-34.14v-16.31h34.14V462.42z"/>
				<path class="st1" d="M1225.29,471.2v18.07h35.89V471.2H1225.29z M1260.31,488.39h-34.14v-16.31h34.14V488.39z"/>
			</g>
			<path class="st1" d="M1225.85,498.37v18.07h35.9v-18.07H1225.85z M1260.87,515.57h-34.14v-16.32h34.14V515.57z"/>
			<path class="st1" d="M1225.85,524.98v18.06h35.9v-18.06H1225.85z M1260.87,542.18h-34.14v-16.32h34.14V542.18z"/>
			<path class="st1" d="M1225.85,552.15v18.07h35.9v-18.07H1225.85z M1260.87,569.34h-34.14v-16.31h34.14V569.34z"/>
			<g>
				<path class="st1" d="M976.93,302.12v12.01h32.87v-12.01H976.93z M1008.92,313.25H977.8v-10.27h31.12V313.25z"/>
				<path class="st1" d="M976.93,283.46v12.02h32.87v-12.02H976.93z M1008.92,294.6H977.8v-10.26h31.12V294.6z"/>
				<path class="st1" d="M976.93,320.36v12.02h88.21v-12.02H976.93z M1064.27,331.5H977.8v-10.26h86.46V331.5z"/>
				<path class="st1" d="M976.93,337.11v12.02h88.21v-12.02H976.93z M1064.27,348.25H977.8v-10.26h86.46V348.25z"/>
				<path class="st1" d="M976.93,353.75v11.59h88.21v-11.59H976.93z M1064.27,364.46H977.8v-9.83h86.46V364.46z"/>
			</g>
			<path class="st1" d="M1225.29,419.26v18.07h35.89v-18.07H1225.29z M1260.31,436.45h-34.14v-16.31h34.14V436.45z"/>
			<g>
				<path class="st1" d="M1110.88,375.27v11.65h8.52v-11.65H1110.88z M1118.52,386.04h-6.77v-9.9h6.77V386.04z"/>
				<path class="st1" d="M1096.58,375.27v11.65h8.53v-11.65H1096.58z M1104.23,386.04h-6.77v-9.9h6.77V386.04z"/>
				<path class="st1" d="M1082.6,375.27v11.65h8.53v-11.65H1082.6z M1090.25,386.04h-6.77v-9.9h6.77V386.04z"/>
				<path class="st1" d="M1069.36,375.27v11.65h8.52v-11.65H1069.36z M1077,386.04h-6.77v-9.9h6.77V386.04z"/>
				<path class="st1" d="M1055.86,375.27v11.65h8.52v-11.65H1055.86z M1063.5,386.04h-6.76v-9.9h6.76V386.04z"/>
				<path class="st1" d="M1042.2,375.27v11.65h8.52v-11.65H1042.2z M1049.85,386.04h-6.77v-9.9h6.77V386.04z"/>
				<path class="st1" d="M1027.9,375.27v11.65h8.53v-11.65H1027.9z M1035.55,386.04h-6.77v-9.9h6.77V386.04z"/>
				<path class="st1" d="M1013.94,375.27v11.65h8.52v-11.65H1013.94z M1021.57,386.04h-6.77v-9.9h6.77V386.04z"/>
				<path class="st1" d="M1000.69,375.27v11.65h8.52v-11.65H1000.69z M1008.32,386.04h-6.77v-9.9h6.77V386.04z"/>
				<path class="st1" d="M987.18,375.27v11.65h8.52v-11.65H987.18z M994.82,386.04h-6.76v-9.9h6.76V386.04z"/>
				<path class="st1" d="M973.11,375.27v11.65h8.52v-11.65H973.11z M980.75,386.04h-6.76v-9.9h6.76V386.04z"/>
				<path class="st1" d="M958.81,375.27v11.65h8.53v-11.65H958.81z M966.46,386.04h-6.77v-9.9h6.77V386.04z"/>
				<path class="st1" d="M944.84,375.27v11.65h8.53v-11.65H944.84z M952.49,386.04h-6.77v-9.9h6.77V386.04z"/>
				<path class="st1" d="M931.59,375.27v11.65h8.53v-11.65H931.59z M939.24,386.04h-6.77v-9.9h6.77V386.04z"/>
				<path class="st1" d="M918.1,375.27v11.65h8.52v-11.65H918.1z M925.73,386.04h-6.77v-9.9h6.77V386.04z"/>
				<path class="st1" d="M904.43,375.27v11.65h8.52v-11.65H904.43z M912.08,386.04h-6.77v-9.9h6.77V386.04z"/>
				<path class="st1" d="M890.14,375.27v11.65h8.53v-11.65H890.14z M897.78,386.04h-6.77v-9.9h6.77V386.04z"/>
				<path class="st1" d="M876.16,375.27v11.65h8.53v-11.65H876.16z M883.81,386.04h-6.77v-9.9h6.77V386.04z"/>
				<path class="st1" d="M862.91,375.27v11.65h8.53v-11.65H862.91z M870.56,386.04h-6.77v-9.9h6.77V386.04z"/>
				<path class="st1" d="M849.42,375.27v11.65h8.52v-11.65H849.42z M857.06,386.04h-6.77v-9.9h6.77V386.04z"/>
				<path class="st1" d="M1110.88,394.28v11.65h8.52v-11.65H1110.88z M1118.52,405.05h-6.77v-9.9h6.77V405.05z"/>
				<path class="st1" d="M1096.58,394.28v11.65h8.53v-11.65H1096.58z M1104.23,405.05h-6.77v-9.9h6.77V405.05z"/>
				<path class="st1" d="M1082.6,394.28v11.65h8.53v-11.65H1082.6z M1090.25,405.05h-6.77v-9.9h6.77V405.05z"/>
				<path class="st1" d="M1069.36,394.28v11.65h8.52v-11.65H1069.36z M1077,405.05h-6.77v-9.9h6.77V405.05z"/>
				<path class="st1" d="M1055.86,394.28v11.65h8.52v-11.65H1055.86z M1063.5,405.05h-6.76v-9.9h6.76V405.05z"/>
				<path class="st1" d="M1042.2,394.28v11.65h8.52v-11.65H1042.2z M1049.85,405.05h-6.77v-9.9h6.77V405.05z"/>
				<path class="st1" d="M1027.9,394.28v11.65h8.53v-11.65H1027.9z M1035.55,405.05h-6.77v-9.9h6.77V405.05z"/>
				<path class="st1" d="M1013.94,394.28v11.65h8.52v-11.65H1013.94z M1021.57,405.05h-6.77v-9.9h6.77V405.05z"/>
				<path class="st1" d="M1000.69,394.28v11.65h8.52v-11.65H1000.69z M1008.32,405.05h-6.77v-9.9h6.77V405.05z"/>
				<path class="st1" d="M987.18,394.28v11.65h8.52v-11.65H987.18z M994.82,405.05h-6.76v-9.9h6.76V405.05z"/>
				<path class="st1" d="M973.11,394.28v11.65h8.52v-11.65H973.11z M980.75,405.05h-6.76v-9.9h6.76V405.05z"/>
				<path class="st1" d="M958.81,394.28v11.65h8.53v-11.65H958.81z M966.46,405.05h-6.77v-9.9h6.77V405.05z"/>
				<path class="st1" d="M944.84,394.28v11.65h8.53v-11.65H944.84z M952.49,405.05h-6.77v-9.9h6.77V405.05z"/>
				<path class="st1" d="M931.59,394.28v11.65h8.53v-11.65H931.59z M939.24,405.05h-6.77v-9.9h6.77V405.05z"/>
				<path class="st1" d="M918.1,394.28v11.65h8.52v-11.65H918.1z M925.73,405.05h-6.77v-9.9h6.77V405.05z"/>
				<path class="st1" d="M904.43,394.28v11.65h8.52v-11.65H904.43z M912.08,405.05h-6.77v-9.9h6.77V405.05z"/>
				<path class="st1" d="M890.14,394.28v11.65h8.53v-11.65H890.14z M897.78,405.05h-6.77v-9.9h6.77V405.05z"/>
				<path class="st1" d="M876.16,394.28v11.65h8.53v-11.65H876.16z M883.81,405.05h-6.77v-9.9h6.77V405.05z"/>
				<path class="st1" d="M862.91,394.28v11.65h8.53v-11.65H862.91z M870.56,405.05h-6.77v-9.9h6.77V405.05z"/>
				<path class="st1" d="M849.42,394.28v11.65h8.52v-11.65H849.42z M857.06,405.05h-6.77v-9.9h6.77V405.05z"/>
				<path class="st1" d="M1110.88,413v11.66h8.52V413H1110.88z M1118.52,423.77h-6.77v-9.9h6.77V423.77z"/>
				<path class="st1" d="M1096.58,413v11.66h8.53V413H1096.58z M1104.23,423.77h-6.77v-9.9h6.77V423.77z"/>
				<path class="st1" d="M1082.6,413v11.66h8.53V413H1082.6z M1090.25,423.77h-6.77v-9.9h6.77V423.77z"/>
				<path class="st1" d="M1069.36,413v11.66h8.52V413H1069.36z M1077,423.77h-6.77v-9.9h6.77V423.77z"/>
				<path class="st1" d="M1055.86,413v11.66h8.52V413H1055.86z M1063.5,423.77h-6.76v-9.9h6.76V423.77z"/>
				<path class="st1" d="M1042.2,413v11.66h8.52V413H1042.2z M1049.85,423.77h-6.77v-9.9h6.77V423.77z"/>
				<path class="st1" d="M1027.9,413v11.66h8.53V413H1027.9z M1035.55,423.77h-6.77v-9.9h6.77V423.77z"/>
				<path class="st1" d="M1013.94,413v11.66h8.52V413H1013.94z M1021.57,423.77h-6.77v-9.9h6.77V423.77z"/>
				<path class="st1" d="M1000.69,413v11.66h8.52V413H1000.69z M1008.32,423.77h-6.77v-9.9h6.77V423.77z"/>
				<path class="st1" d="M987.18,413v11.66h8.52V413H987.18z M994.82,423.77h-6.76v-9.9h6.76V423.77z"/>
				<path class="st1" d="M973.11,413v11.66h8.52V413H973.11z M980.75,423.77h-6.76v-9.9h6.76V423.77z"/>
				<path class="st1" d="M958.81,413v11.66h8.53V413H958.81z M966.46,423.77h-6.77v-9.9h6.77V423.77z"/>
				<path class="st1" d="M944.84,413v11.66h8.53V413H944.84z M952.49,423.77h-6.77v-9.9h6.77V423.77z"/>
				<path class="st1" d="M931.59,413v11.66h8.53V413H931.59z M939.24,423.77h-6.77v-9.9h6.77V423.77z"/>
				<path class="st1" d="M918.1,413v11.66h8.52V413H918.1z M925.73,423.77h-6.77v-9.9h6.77V423.77z"/>
				<path class="st1" d="M904.43,413v11.66h8.52V413H904.43z M912.08,423.77h-6.77v-9.9h6.77V423.77z"/>
				<path class="st1" d="M890.14,413v11.66h8.53V413H890.14z M897.78,423.77h-6.77v-9.9h6.77V423.77z"/>
				<path class="st1" d="M876.16,413v11.66h8.53V413H876.16z M883.81,423.77h-6.77v-9.9h6.77V423.77z"/>
				<path class="st1" d="M862.91,413v11.66h8.53V413H862.91z M870.56,423.77h-6.77v-9.9h6.77V423.77z"/>
				<path class="st1" d="M849.42,413v11.66h8.52V413H849.42z M857.06,423.77h-6.77v-9.9h6.77V423.77z"/>
				<path class="st1" d="M1110.88,432.89v11.65h8.52v-11.65H1110.88z M1118.52,443.66h-6.77v-9.9h6.77V443.66z"/>
				<path class="st1" d="M1096.58,432.89v11.65h8.53v-11.65H1096.58z M1104.23,443.66h-6.77v-9.9h6.77V443.66z"/>
				<path class="st1" d="M1082.6,432.89v11.65h8.53v-11.65H1082.6z M1090.25,443.66h-6.77v-9.9h6.77V443.66z"/>
				<path class="st1" d="M1069.36,432.89v11.65h8.52v-11.65H1069.36z M1077,443.66h-6.77v-9.9h6.77V443.66z"/>
				<path class="st1" d="M1055.86,432.89v11.65h8.52v-11.65H1055.86z M1063.5,443.66h-6.76v-9.9h6.76V443.66z"/>
				<path class="st1" d="M1042.2,432.89v11.65h8.52v-11.65H1042.2z M1049.85,443.66h-6.77v-9.9h6.77V443.66z"/>
				<path class="st1" d="M1027.9,432.89v11.65h8.53v-11.65H1027.9z M1035.55,443.66h-6.77v-9.9h6.77V443.66z"/>
				<path class="st1" d="M1013.94,432.89v11.65h8.52v-11.65H1013.94z M1021.57,443.66h-6.77v-9.9h6.77V443.66z"/>
				<path class="st1" d="M1000.69,432.89v11.65h8.52v-11.65H1000.69z M1008.32,443.66h-6.77v-9.9h6.77V443.66z"/>
				<path class="st1" d="M987.18,432.89v11.65h8.52v-11.65H987.18z M994.82,443.66h-6.76v-9.9h6.76V443.66z"/>
				<path class="st1" d="M973.11,432.89v11.65h8.52v-11.65H973.11z M980.75,443.66h-6.76v-9.9h6.76V443.66z"/>
				<path class="st1" d="M958.81,432.89v11.65h8.53v-11.65H958.81z M966.46,443.66h-6.77v-9.9h6.77V443.66z"/>
				<path class="st1" d="M944.84,432.89v11.65h8.53v-11.65H944.84z M952.49,443.66h-6.77v-9.9h6.77V443.66z"/>
				<path class="st1" d="M931.59,432.89v11.65h8.53v-11.65H931.59z M939.24,443.66h-6.77v-9.9h6.77V443.66z"/>
				<path class="st1" d="M918.1,432.89v11.65h8.52v-11.65H918.1z M925.73,443.66h-6.77v-9.9h6.77V443.66z"/>
				<path class="st1" d="M904.43,432.89v11.65h8.52v-11.65H904.43z M912.08,443.66h-6.77v-9.9h6.77V443.66z"/>
				<path class="st1" d="M890.14,432.89v11.65h8.53v-11.65H890.14z M897.78,443.66h-6.77v-9.9h6.77V443.66z"/>
				<path class="st1" d="M876.16,432.89v11.65h8.53v-11.65H876.16z M883.81,443.66h-6.77v-9.9h6.77V443.66z"/>
				<path class="st1" d="M862.91,432.89v11.65h8.53v-11.65H862.91z M870.56,443.66h-6.77v-9.9h6.77V443.66z"/>
				<path class="st1" d="M849.42,432.89v11.65h8.52v-11.65H849.42z M857.06,443.66h-6.77v-9.9h6.77V443.66z"/>
				<path class="st1" d="M1110.88,451.9v11.65h8.52V451.9H1110.88z M1118.52,462.67h-6.77v-9.9h6.77V462.67z"/>
				<path class="st1" d="M1096.58,451.9v11.65h8.53V451.9H1096.58z M1104.23,462.67h-6.77v-9.9h6.77V462.67z"/>
				<path class="st1" d="M1082.6,451.9v11.65h8.53V451.9H1082.6z M1090.25,462.67h-6.77v-9.9h6.77V462.67z"/>
				<path class="st1" d="M1069.36,451.9v11.65h8.52V451.9H1069.36z M1077,462.67h-6.77v-9.9h6.77V462.67z"/>
				<path class="st1" d="M1055.86,451.9v11.65h8.52V451.9H1055.86z M1063.5,462.67h-6.76v-9.9h6.76V462.67z"/>
				<path class="st1" d="M1042.2,451.9v11.65h8.52V451.9H1042.2z M1049.85,462.67h-6.77v-9.9h6.77V462.67z"/>
				<path class="st1" d="M1027.9,451.9v11.65h8.53V451.9H1027.9z M1035.55,462.67h-6.77v-9.9h6.77V462.67z"/>
				<path class="st1" d="M1013.94,451.9v11.65h8.52V451.9H1013.94z M1021.57,462.67h-6.77v-9.9h6.77V462.67z"/>
				<path class="st1" d="M1000.69,451.9v11.65h8.52V451.9H1000.69z M1008.32,462.67h-6.77v-9.9h6.77V462.67z"/>
				<path class="st1" d="M987.18,451.9v11.65h8.52V451.9H987.18z M994.82,462.67h-6.76v-9.9h6.76V462.67z"/>
				<path class="st1" d="M973.11,451.9v11.65h8.52V451.9H973.11z M980.75,462.67h-6.76v-9.9h6.76V462.67z"/>
				<path class="st1" d="M958.81,451.9v11.65h8.53V451.9H958.81z M966.46,462.67h-6.77v-9.9h6.77V462.67z"/>
				<path class="st1" d="M944.84,451.9v11.65h8.53V451.9H944.84z M952.49,462.67h-6.77v-9.9h6.77V462.67z"/>
				<path class="st1" d="M931.59,451.9v11.65h8.53V451.9H931.59z M939.24,462.67h-6.77v-9.9h6.77V462.67z"/>
				<path class="st1" d="M918.1,451.9v11.65h8.52V451.9H918.1z M925.73,462.67h-6.77v-9.9h6.77V462.67z"/>
				<path class="st1" d="M904.43,451.9v11.65h8.52V451.9H904.43z M912.08,462.67h-6.77v-9.9h6.77V462.67z"/>
				<path class="st1" d="M890.14,451.9v11.65h8.53V451.9H890.14z M897.78,462.67h-6.77v-9.9h6.77V462.67z"/>
				<path class="st1" d="M862.91,451.9v11.04c0,0.33,0.28,0.61,0.62,0.61h7.91V451.9H862.91z M870.56,462.67h-6.77v-9.9h6.77V462.67
					z"/>
				<path class="st1" d="M876.16,451.9v11.65h8.53V451.9H876.16z M883.81,462.67h-6.77v-9.9h6.77V462.67z"/>
				<path class="st1" d="M849.42,451.9v9.23l8.52,1.47v-10.7H849.42z M850.29,460.4v-7.62h6.77v8.78L850.29,460.4z"/>
				<path class="st1" d="M1110.88,470.61v11.66h8.52v-11.66H1110.88z M1118.52,481.39h-6.77v-9.9h6.77V481.39z"/>
				<path class="st1" d="M1096.58,470.61v11.66h8.53v-11.66H1096.58z M1104.23,481.39h-6.77v-9.9h6.77V481.39z"/>
				<path class="st1" d="M1082.6,470.61v11.66h8.53v-11.66H1082.6z M1090.25,481.39h-6.77v-9.9h6.77V481.39z"/>
				<path class="st1" d="M1069.36,470.61v11.66h8.52v-11.66H1069.36z M1077,481.39h-6.77v-9.9h6.77V481.39z"/>
				<path class="st1" d="M1055.86,470.61v11.66h8.52v-11.66H1055.86z M1063.5,481.39h-6.76v-9.9h6.76V481.39z"/>
				<path class="st1" d="M1042.2,470.61v11.66h8.52v-11.66H1042.2z M1049.85,481.39h-6.77v-9.9h6.77V481.39z"/>
				<path class="st1" d="M1027.9,470.61v11.66h8.53v-11.66H1027.9z M1035.55,481.39h-6.77v-9.9h6.77V481.39z"/>
				<path class="st1" d="M1013.94,470.61v11.66h8.52v-11.66H1013.94z M1021.57,481.39h-6.77v-9.9h6.77V481.39z"/>
				<path class="st1" d="M1000.69,470.61v11.66h8.52v-11.66H1000.69z M1008.32,481.39h-6.77v-9.9h6.77V481.39z"/>
				<path class="st1" d="M987.18,470.61v11.66h8.52v-11.66H987.18z M994.82,481.39h-6.76v-9.9h6.76V481.39z"/>
				<path class="st1" d="M973.11,470.61v11.66h8.52v-11.66H973.11z M980.75,481.39h-6.76v-9.9h6.76V481.39z"/>
				<path class="st1" d="M958.81,470.61v11.66h8.53v-11.66H958.81z M966.46,481.39h-6.77v-9.9h6.77V481.39z"/>
				<path class="st1" d="M944.84,470.61v11.66h8.53v-11.66H944.84z M952.49,481.39h-6.77v-9.9h6.77V481.39z"/>
				<path class="st1" d="M931.59,470.61v11.66h8.53v-11.66H931.59z M939.24,481.39h-6.77v-9.9h6.77V481.39z"/>
				<path class="st1" d="M918.1,470.61v11.66h8.52v-11.66H918.1z M925.73,481.39h-6.77v-9.9h6.77V481.39z"/>
				<path class="st1" d="M904.43,470.61v11.66h8.52v-11.66H904.43z M912.08,481.39h-6.77v-9.9h6.77V481.39z"/>
				<path class="st1" d="M890.14,470.61v11.66h8.53v-11.66H890.14z M897.78,481.39h-6.77v-9.9h6.77V481.39z"/>
			</g>
			<path class="st1" d="M785.34,498.02v21.43h0.88v-21.43H785.34z M768.34,449.33v70.99h17.88v-70.99H768.34z M785.34,519.44h-16.13
				V450.2h16.13V519.44z"/>
			<path class="st1" d="M1185.94,416.92v-22.4h-1.8v22.4h-12.6v28.53h26.84v-28.53H1185.94z M1197.5,444.57h-25.09V417.8h12.61
				v-22.4l0.05,22.4h12.43V444.57z"/>
			<path class="st1" d="M1260.31,359.93h0.87v-18.07h-7.31v-7.48h-1.8v7.48h-31.28v-7.48h-1.8v7.48h-6.46v76.02l13.94-0.03V385.5
				h34.71v-18.07h-0.87l-27.25,0.05v-7.5L1260.31,359.93z M1260.31,368.31v16.31h-34.71v32.36l-12.18,0.02v-74.26h6.46v-7.48
				l0.04,7.48h33.04v-7.48l0.04,6.57l0.01,0.88v0.03h7.3v16.32l-28.13,0.05v9.25L1260.31,368.31z"/>
			<path class="st1" d="M883.28,563.92c-0.24,0-0.44-0.2-0.44-0.44v-96.61l-97.14-16.68c-0.24-0.04-0.4-0.27-0.36-0.51
				c0.04-0.24,0.27-0.4,0.51-0.36l97.87,16.81v97.35C883.72,563.72,883.53,563.92,883.28,563.92z"/>
			<path class="st1" d="M808.38,519.44c-0.5,0.27-1.03,0.57-1.59,0.88h76.06v80.92h0.88v-81.8H808.38z M761.2,519.44v82.68h122.52
				v-82.68H761.2z M762.08,601.24v-80.92h120.76v80.92H762.08z"/>
			<path class="st1" d="M785.34,497.14v0.88h41.96c0.48-0.3,0.97-0.61,1.48-0.88H785.34z M761.2,470.55v27.47h122.52v-27.47H761.2z
				 M882.84,497.14H762.08v-25.71h120.76V497.14z"/>
			<path class="st1" d="M868.32,541.15v9.68h7.12v-9.68H868.32z M874.56,549.95h-5.37v-7.93h5.37V549.95z"/>
			<path class="st1" d="M856.63,541.15v9.68h7.12v-9.68H856.63z M862.88,549.95h-5.37v-7.93h5.37V549.95z"/>
			<path class="st1" d="M845.21,541.15v9.68h7.13v-9.68H845.21z M851.46,549.95h-5.37v-7.93h5.37V549.95z"/>
			<path class="st1" d="M834.39,541.15v9.68h7.12v-9.68H834.39z M840.63,549.95h-5.37v-7.93h5.37V549.95z"/>
			<path class="st1" d="M823.35,541.15v9.68h7.13v-9.68H823.35z M829.6,549.95h-5.37v-7.93h5.37V549.95z"/>
			<path class="st1" d="M812.18,541.15v9.68h7.13v-9.68H812.18z M818.43,549.95h-5.37v-7.93h5.37V549.95z"/>
			<path class="st1" d="M800.5,541.15v9.68h7.12v-9.68H800.5z M806.75,549.95h-5.37v-7.93h5.37V549.95z"/>
			<path class="st1" d="M789.08,541.15v9.68h7.12v-9.68H789.08z M795.33,549.95h-5.37v-7.93h5.37V549.95z"/>
			<path class="st1" d="M778.26,541.15v9.68h7.12v-9.68H778.26z M784.5,549.95h-5.37v-7.93h5.37V549.95z"/>
			<path class="st1" d="M767.22,541.15v9.68h7.13v-9.68H767.22z M773.47,549.95h-5.37v-7.93h5.37V549.95z"/>
			<path class="st1" d="M868.32,556.69v9.68h7.12v-9.68H868.32z M874.56,565.49h-5.37v-7.93h5.37V565.49z"/>
			<path class="st1" d="M856.63,556.69v9.68h7.12v-9.68H856.63z M862.88,565.49h-5.37v-7.93h5.37V565.49z"/>
			<path class="st1" d="M845.21,556.69v9.68h7.13v-9.68H845.21z M851.46,565.49h-5.37v-7.93h5.37V565.49z"/>
			<path class="st1" d="M834.39,556.69v9.68h7.12v-9.68H834.39z M840.63,565.49h-5.37v-7.93h5.37V565.49z"/>
			<path class="st1" d="M823.35,556.69v9.68h7.13v-9.68H823.35z M829.6,565.49h-5.37v-7.93h5.37V565.49z"/>
			<path class="st1" d="M812.18,556.69v9.68h7.13v-9.68H812.18z M818.43,565.49h-5.37v-7.93h5.37V565.49z"/>
			<path class="st1" d="M800.5,556.69v9.68h7.12v-9.68H800.5z M806.75,565.49h-5.37v-7.93h5.37V565.49z"/>
			<path class="st1" d="M789.08,556.69v9.68h7.12v-9.68H789.08z M795.33,565.49h-5.37v-7.93h5.37V565.49z"/>
			<path class="st1" d="M778.26,556.69v9.68h7.12v-9.68H778.26z M784.5,565.49h-5.37v-7.93h5.37V565.49z"/>
			<path class="st1" d="M767.22,556.69v9.68h7.13v-9.68H767.22z M773.47,565.49h-5.37v-7.93h5.37V565.49z"/>
			<path class="st1" d="M868.32,503.73v9.68h7.12v-9.68H868.32z M874.56,512.53h-5.37v-7.93h5.37V512.53z"/>
			<path class="st1" d="M856.63,503.73v9.68h7.12v-9.68H856.63z M862.88,512.53h-5.37v-7.93h5.37V512.53z"/>
			<path class="st1" d="M845.21,503.73v9.68h7.13v-9.68H845.21z M851.46,512.53h-5.37v-7.93h5.37V512.53z"/>
			<path class="st1" d="M834.39,503.73v9.68h7.12v-9.68H834.39z M840.63,512.53h-5.37v-7.93h5.37V512.53z"/>
			<path class="st1" d="M823.35,503.73v9.68h7.13v-9.68H823.35z M829.6,512.53h-5.37v-7.93h5.37V512.53z"/>
			<path class="st1" d="M812.18,503.73v9.68h7.13v-9.68H812.18z M818.43,512.53h-5.37v-7.93h5.37V512.53z"/>
			<path class="st1" d="M800.5,503.73v9.68h7.12v-9.68H800.5z M806.75,512.53h-5.37v-7.93h5.37V512.53z"/>
			<path class="st1" d="M789.08,503.73v9.68h7.12v-9.68H789.08z M795.33,512.53h-5.37v-7.93h5.37V512.53z"/>
			<path class="st1" d="M868.32,525.38v9.68h7.12v-9.68H868.32z M874.56,534.18h-5.37v-7.93h5.37V534.18z"/>
			<path class="st1" d="M856.63,525.38v9.68h7.12v-9.68H856.63z M862.88,534.18h-5.37v-7.93h5.37V534.18z"/>
			<path class="st1" d="M845.21,525.38v9.68h7.13v-9.68H845.21z M851.46,534.18h-5.37v-7.93h5.37V534.18z"/>
			<path class="st1" d="M834.39,525.38v9.68h7.12v-9.68H834.39z M840.63,534.18h-5.37v-7.93h5.37V534.18z"/>
			<path class="st1" d="M823.35,525.38v9.68h7.13v-9.68H823.35z M824.23,534.18v-7.93h5.37v7.93H824.23z"/>
			<path class="st1" d="M812.18,525.38v9.68h7.13v-9.68H812.18z M813.06,534.18v-7.93h5.37v7.93H813.06z"/>
			<path class="st1" d="M800.5,525.38v9.68h7.12v-9.68H800.5z M806.75,534.18h-5.37v-7.93h5.37V534.18z"/>
			<path class="st1" d="M789.08,525.38v9.68h7.12v-9.68H789.08z M795.33,534.18h-5.37v-7.93h5.37V534.18z"/>
			<path class="st1" d="M778.26,525.38v9.68h7.12v-9.68H778.26z M784.5,534.18h-5.37v-7.93h5.37V534.18z"/>
			<path class="st1" d="M767.22,525.38v9.68h7.13v-9.68H767.22z M773.47,534.18h-5.37v-7.93h5.37V534.18z"/>
			<path class="st1" d="M868.32,571.98v9.68h7.12v-9.68H868.32z M874.56,580.79h-5.37v-7.93h5.37V580.79z"/>
			<path class="st1" d="M856.63,571.98v9.68h7.12v-9.68H856.63z M862.88,580.79h-5.37v-7.93h5.37V580.79z"/>
			<path class="st1" d="M845.21,571.98v9.68h7.13v-9.68H845.21z M851.46,580.79h-5.37v-7.93h5.37V580.79z"/>
			<path class="st1" d="M834.39,571.98v9.68h7.12v-9.68H834.39z M840.63,580.79h-5.37v-7.93h5.37V580.79z"/>
			<path class="st1" d="M823.35,571.98v9.68h7.13v-9.68H823.35z M829.6,580.79h-5.37v-7.93h5.37V580.79z"/>
			<path class="st1" d="M812.18,571.98v9.68h7.13v-9.68H812.18z M818.43,580.79h-5.37v-7.93h5.37V580.79z"/>
			<path class="st1" d="M800.5,571.98v9.68h7.12v-9.68H800.5z M806.75,580.79h-5.37v-7.93h5.37V580.79z"/>
			<path class="st1" d="M789.08,571.98v9.68h7.12v-9.68H789.08z M795.33,580.79h-5.37v-7.93h5.37V580.79z"/>
			<path class="st1" d="M778.26,571.98v9.68h7.12v-9.68H778.26z M784.5,580.79h-5.37v-7.93h5.37V580.79z"/>
			<path class="st1" d="M767.22,571.98v9.68h7.13v-9.68H767.22z M773.47,580.79h-5.37v-7.93h5.37V580.79z"/>
			<path class="st1" d="M791.88,431.06v20.19l2.68,0.46v-20.65H791.88z M793.68,450.68l-0.64-0.12l-0.28-0.05v-18.57h0.92V450.68z"
				/>
			<g>
				<path class="st1" d="M868.32,478.02v9.96h6.12v-9.96H868.32z M873.56,487.1h-4.37v-8.2h4.37V487.1z"/>
				<path class="st1" d="M816.2,478.02v9.96h6.12v-9.96H816.2z M821.45,487.1h-4.37v-8.2h4.37V487.1z"/>
				<path class="st1" d="M774.74,478.02v9.96h6.13v-9.96H774.74z M779.99,487.1h-4.37v-8.2h4.37V487.1z"/>
			</g>
			<path class="st1" d="M1031.73,498.37v103.28h175.93V498.37H1031.73z M1032.6,499.25h174.17v101.52H1032.6V499.25z"/>
			<path class="st1" d="M1038.59,508.87V524h10.22v-15.13H1038.59z M1047.93,523.12h-8.46v-13.37h8.46V523.12z"/>
			<path class="st1" d="M1055.06,508.87V524h10.21v-15.13H1055.06z M1064.39,523.12h-8.46v-13.37h8.46V523.12z"/>
			<path class="st1" d="M1071.62,508.87V524h10.21v-15.13H1071.62z M1080.95,523.12h-8.46v-13.37h8.46V523.12z"/>
			<path class="st1" d="M1088.08,508.87V524h10.21v-15.13H1088.08z M1097.41,523.12h-8.46v-13.37h8.46V523.12z"/>
			<path class="st1" d="M1105.03,508.87V524h10.21v-15.13H1105.03z M1114.37,523.12h-8.46v-13.37h8.46V523.12z"/>
			<path class="st1" d="M1121.48,508.87V524h10.21v-15.13H1121.48z M1130.82,523.12h-8.46v-13.37h8.46V523.12z"/>
			<path class="st1" d="M1138.05,508.87V524h10.22v-15.13H1138.05z M1147.39,523.12h-8.46v-13.37h8.46V523.12z"/>
			<path class="st1" d="M1154.51,508.87V524h10.22v-15.13H1154.51z M1163.85,523.12h-8.46v-13.37h8.46V523.12z"/>
			<path class="st1" d="M1171.78,508.87V524h10.21v-15.13H1171.78z M1181.11,523.12h-8.46v-13.37h8.46V523.12z"/>
			<path class="st1" d="M1188.24,508.87V524h10.21v-15.13H1188.24z M1197.56,523.12h-8.46v-13.37h8.46V523.12z"/>
			<path class="st1" d="M1038.59,529.94v15.13h10.22v-15.13H1038.59z M1047.93,544.19h-8.46v-13.37h8.46V544.19z"/>
			<path class="st1" d="M1055.06,529.94v15.13h10.21v-15.13H1055.06z M1064.39,544.19h-8.46v-13.37h8.46V544.19z"/>
			<path class="st1" d="M1071.62,529.94v15.13h10.21v-15.13H1071.62z M1080.95,544.19h-8.46v-13.37h8.46V544.19z"/>
			<path class="st1" d="M1088.08,529.94v15.13h10.21v-15.13H1088.08z M1097.41,544.19h-8.46v-13.37h8.46V544.19z"/>
			<path class="st1" d="M1105.03,529.94v15.13h10.21v-15.13H1105.03z M1114.37,544.19h-8.46v-13.37h8.46V544.19z"/>
			<path class="st1" d="M1121.48,529.94v15.13h10.21v-15.13H1121.48z M1130.82,544.19h-8.46v-13.37h8.46V544.19z"/>
			<path class="st1" d="M1138.05,529.94v15.13h10.22v-15.13H1138.05z M1147.39,544.19h-8.46v-13.37h8.46V544.19z"/>
			<path class="st1" d="M1154.51,529.94v15.13h10.22v-15.13H1154.51z M1163.85,544.19h-8.46v-13.37h8.46V544.19z"/>
			<path class="st1" d="M1171.78,529.94v15.13h10.21v-15.13H1171.78z M1181.11,544.19h-8.46v-13.37h8.46V544.19z"/>
			<path class="st1" d="M1188.24,529.94v15.13h10.21v-15.13H1188.24z M1197.56,544.19h-8.46v-13.37h8.46V544.19z"/>
			<path class="st1" d="M1038.59,552.58v15.13h10.22v-15.13H1038.59z M1047.93,566.83h-8.46v-13.37h8.46V566.83z"/>
			<path class="st1" d="M1055.06,552.58v15.13h10.21v-15.13H1055.06z M1064.39,566.83h-8.46v-13.37h8.46V566.83z"/>
			<path class="st1" d="M1071.62,552.58v15.13h10.21v-15.13H1071.62z M1080.95,566.83h-8.46v-13.37h8.46V566.83z"/>
			<path class="st1" d="M1088.08,552.58v15.13h10.21v-15.13H1088.08z M1097.41,566.83h-8.46v-13.37h8.46V566.83z"/>
			<path class="st1" d="M1105.03,552.58v15.13h10.21v-15.13H1105.03z M1114.37,566.83h-8.46v-13.37h8.46V566.83z"/>
			<path class="st1" d="M1121.48,552.58v15.13h10.21v-15.13H1121.48z M1130.82,566.83h-8.46v-13.37h8.46V566.83z"/>
			<path class="st1" d="M1138.05,552.58v15.13h10.22v-15.13H1138.05z M1147.39,566.83h-8.46v-13.37h8.46V566.83z"/>
			<path class="st1" d="M1154.51,552.58v15.13h10.22v-15.13H1154.51z M1163.85,566.83h-8.46v-13.37h8.46V566.83z"/>
			<path class="st1" d="M1171.78,552.58v15.13h10.21v-15.13H1171.78z M1181.11,566.83h-8.46v-13.37h8.46V566.83z"/>
			<path class="st1" d="M1188.24,552.58v15.13h10.21v-15.13H1188.24z M1197.56,566.83h-8.46v-13.37h8.46V566.83z"/>
			<path class="st1" d="M1038.59,573.65v15.13h10.22v-15.13H1038.59z M1047.93,587.9h-8.46v-13.37h8.46V587.9z"/>
			<path class="st1" d="M1055.06,573.65v15.13h10.21v-15.13H1055.06z M1064.39,587.9h-8.46v-13.37h8.46V587.9z"/>
			<path class="st1" d="M1071.62,573.65v15.13h10.21v-15.13H1071.62z M1080.95,587.9h-8.46v-13.37h8.46V587.9z"/>
			<path class="st1" d="M1088.08,573.65v15.13h10.21v-15.13H1088.08z M1097.41,587.9h-8.46v-13.37h8.46V587.9z"/>
			<path class="st1" d="M1105.03,573.65v15.13h10.21v-15.13H1105.03z M1114.37,587.9h-8.46v-13.37h8.46V587.9z"/>
			<path class="st1" d="M1121.48,573.65v15.13h10.21v-15.13H1121.48z M1130.82,587.9h-8.46v-13.37h8.46V587.9z"/>
			<path class="st1" d="M1138.05,573.65v15.13h10.22v-15.13H1138.05z M1147.39,587.9h-8.46v-13.37h8.46V587.9z"/>
			<path class="st1" d="M1154.51,573.65v15.13h10.22v-15.13H1154.51z M1163.85,587.9h-8.46v-13.37h8.46V587.9z"/>
			<path class="st1" d="M1171.78,573.65v15.13h10.21v-15.13H1171.78z M1181.11,587.9h-8.46v-13.37h8.46V587.9z"/>
			<path class="st1" d="M1188.24,573.65v15.13h10.21v-15.13H1188.24z M1197.56,587.9h-8.46v-13.37h8.46V587.9z"/>
			<path class="st1" d="M1183.35,471.2l-0.34,0.13l-36.52,13.99v13.93h37.4V471L1183.35,471.2z M1147.35,498.37v-12.44l35.65-13.65
				v26.09H1147.35z"/>
			<path class="st1" d="M883.72,510.43l-0.88-0.3v91.99h84.48v-62.74L883.72,510.43z M883.72,601.24v-89.88L966.44,540v61.25H883.72
				z"/>
			<path class="st1" d="M885.05,541.79v3.69h80.06v-3.69H885.05z M964.23,544.59h-78.3v-1.93h78.3V544.59z"/>
			<path class="st1" d="M885.05,550.81v3.7h80.06v-3.7H885.05z M964.23,553.63h-78.3v-1.94h78.3V553.63z"/>
			<path class="st1" d="M885.05,559.85v3.69h80.06v-3.69H885.05z M964.23,562.65h-78.3v-1.93h78.3V562.65z"/>
			<path class="st1" d="M885.05,568.88v3.69h80.06v-3.69H885.05z M964.23,571.69h-78.3v-1.94h78.3V571.69z"/>
			<path class="st1" d="M885.05,577.91v3.69h80.06v-3.69H885.05z M964.23,580.72h-78.3v-1.94h78.3V580.72z"/>
			<path class="st1" d="M885.05,586.94v3.69h80.06v-3.69H885.05z M964.23,589.75h-78.3v-1.93h78.3V589.75z"/>
			<path class="st1" d="M1183,471.2v28.05h7.9V471.2H1183z M1183.88,498.37v-26.29h6.14v26.29H1183.88z"/>
			<path class="st1" d="M1161.04,484.83v10.21h15.13v-10.21H1161.04z M1175.29,494.16h-13.38v-8.45h13.38V494.16z"/>
			<g>
				<path class="st1" d="M890.32,297.82v41.97h5.72v-41.97H890.32z M895.16,338.92h-3.96V298.7h3.96V338.92z"/>
				<path class="st1" d="M899.95,297.82v41.97h5.72v-41.97H899.95z M904.8,338.92h-3.96V298.7h3.96V338.92z"/>
				<path class="st1" d="M909.46,297.82v41.97h5.72v-41.97H909.46z M914.3,338.92h-3.96V298.7h3.96V338.92z"/>
				<path class="st1" d="M919.3,297.82v41.97h5.72v-41.97H919.3z M924.14,338.92h-3.97V298.7h3.97V338.92z"/>
			</g>
		</g>
	</g>
	<g>
		<path class="st4" d="M777.16,1245.76l19.64-0.26c0,0-29.54-32.78-38.6-49.47l-24.94-46.06l-32.65,8.07l41.43,58.72L777.16,1245.76
			z"/>
		<path class="st5" d="M615.7,416.45c-0.02-0.15-0.03-0.29-0.04-0.44c-0.28-3.05-0.64-6.08-1.04-9.08
			c-0.69-5.11-1.55-10.12-2.56-14.92c-0.18-0.83-0.35-1.66-0.54-2.48c-0.65-2.89-1.35-5.71-2.09-8.41c-0.02-0.07-0.04-0.13-0.06-0.2
			c-1.24-4.52-2.62-8.73-4.1-12.53c-0.22-0.59-0.46-1.16-0.69-1.73c-3.53-8.62-7.57-14.83-11.7-17.18
			c-7.53-4.28-16.56-4.75-22.86-4.38c1.62-1.67,4.82-2.29,4.82-2.29c-3.91-0.58-12.65,3.31-12.65,3.31
			c-13-5.01-22.14-4.3-28.51-0.08c-0.93,0.62-1.8,1.31-2.62,2.06c-14.28,13.33-11.46,47.62-9.7,66.24c0.33,3.53,0.63,6.49,0.75,8.64
			c1.13,18.63-40.07,25.64-68.4,40.32c-54.05,28-58.79,65.49-58.79,65.49c0.42,0.24,0.86,0.53,1.33,0.85
			c2.68-4.55,8.19-13.07,12.85-14.37c-0.18,0.42-5.5,11.74-7.48,18.24c15.07,11.47,42.53,36.1,63.05,54.86
			c1.19,1.09,2.36,2.15,3.5,3.2c-0.09-3.72,0.06-9.01,1.42-11.8l2.56,15.47c11.13,10.23,18.8,17.42,18.8,17.42
			c-0.49-5.32,7.89-18.7,20.52-34.82c3.38-4.31,7.07-8.83,10.98-13.45c1.36-1.6,2.75-3.23,4.16-4.85c1.19-1.37,2.4-2.74,3.62-4.13
			c10.33-11.68,21.64-23.52,32.58-33.98c11.82-11.29,23.21-20.97,32.45-27.03c0.34-0.51,0.67-1.03,1-1.56
			c0.97-1.57,1.86-3.26,2.67-5.02c1.22-2.61,2.29-5.37,3.22-8.13c3.58-10.68,5.08-21.3,5.29-22.92c-0.84,10-2.16,17.58-3.64,23.33
			c-1.11,4.32-2.32,7.61-3.48,10.11c-0.1,0.2-0.19,0.39-0.28,0.59c0.14-0.13,0.27-0.25,0.4-0.38c2.7-2.57,5.01-5.72,6.96-9.34
			C616.03,465.19,617.86,440.35,615.7,416.45z"/>
		<path class="st4" d="M593.11,495.58c0.18,0.08-17.49,9.26-30.79,5.62c-12.5-3.41-20.68-19.62-20.5-19.66
			c5.3-1.05,6.82-8.33,6.71-39.6l2.39,0.47l40.25,7.97c0,0-0.92,12.67-0.94,24.6C590.21,485.01,590.82,494.51,593.11,495.58z"/>
		<path class="st6" d="M547.59,362.6c0,0,19.86-21.14,44.79-1.08C592.38,361.52,577.87,359.01,547.59,362.6z"/>
		<path class="st7" d="M591.18,450.38c0,0-0.92,12.67-0.94,24.6c-22.53-0.63-34.43-21.18-39.31-32.57L591.18,450.38z"/>
		<path class="st5" d="M546.77,438.03c0,0-11.8-18.65-14.64-34.6c-2.02-11.39,3.78-53.59,46.19-47.51c0,0,12.32,1.21,23.9,9.03
			c9.21,6.22,22.5,19.65,7.64,56.48L606,433.87L546.77,438.03z"/>
		<path class="st8" d="M751.62,1179.94l-21.34,0.65l-23.1,0.71c0,0-53.35-59.4-83.27-154.61c-0.7-2.21-1.43-4.45-2.21-6.72
			c-16.38-47.75-50.33-107.7-68.22-161.95c-2.85-8.64-5.41-16.78-7.7-24.48c-0.73-2.47-1.45-4.89-2.13-7.27
			c-13.19-45.81-17-75.89-20.52-108.03l114.25,0.91C637.38,719.15,673.18,938.72,751.62,1179.94z"/>
		<path class="st2" d="M634.24,645.03c1.51,61.46,9.02,87.86,9.02,87.86s-55.32,28.11-121.06,7.42
			c-0.77-0.24,4.26-253.97,22.91-260.97c4.29,5.34,17.07,10.53,28.44,10.28c13.1-0.29,17.34-5.89,16.66-12.02
			C604.16,485.36,632.07,557.03,634.24,645.03z"/>
		<path class="st4" d="M598.7,461.68c0,0-53.3,0.88-53.33-32.32c-0.04-33.2-6.94-55.44,27.09-57.41
			c34.03-1.96,40.65,10.7,43.36,21.77C618.52,404.81,612.56,460.6,598.7,461.68z"/>
		<path class="st5" d="M614.23,375.27c-8.22-9.97-14.44-7.8-17.93-4.81c-11.52-17.21-47.92,7.68-47.92,7.68
			c-17.91,17.06-20.74,37.47-20.74,37.47s9.71,6,32.11,0.24c17.62-4.53,30.41-29.62,35.06-40.1c3.17,2.82,9.86,9.33,11.86,15.7
			c2.66,8.45,3.85,25.86,8.92,25.27C615.59,416.72,626.59,390.25,614.23,375.27z"/>
		<path class="st4" d="M813.16,516.78c0,0,7.51-27.08,37.28-23.25c3.42,1.07,13.4,5.05,7.02,15.74c-4.7,7.88-6.74,3.81-14.14,14.4
			c-7.4,10.59-15.43,12.98-24.6,11.71L813.16,516.78z"/>
		<path class="st4" d="M558.77,1243.87c-1.81-9.98-5.26-27.23-5.26-27.23l0.8-61.21h-37.17l13.91,58.59
			c0.29,2.72,1.05,13.27-2.86,24.46c0,0-3.57,16.27,12.45,16.57C556.66,1255.35,560.59,1253.84,558.77,1243.87z"/>
		<path class="st9" d="M528.19,1238.48c0,0-3.18,17.17-1.36,25.33c0,0,4.69,0,16.33,0c11.03,0,17.32,0,17.32,0s0.14-18.64-2.8-25.75
			C557.68,1238.07,546.32,1255.11,528.19,1238.48z"/>
		<path class="st9" d="M797.13,1245.67c-0.11-0.05-0.22-0.1-0.33-0.17c-7.86,0.24-15.78-2.64-22.95-10.71
			c-21.82-24.58-34.08-27.33-38.36-27.32c-3.68,7.59-7.75,16.12-2.52,25.73l7.81,30.61h8.43l0.08-28.9
			c5.55,1.46,10.96,4.12,13.38,8.94c5.89,11.79,9.99,19.96,15.46,19.96c3.09,0,37.87,0,37.87,0S815.26,1253.83,797.13,1245.67z"/>
		<path class="st10" d="M813.16,516.78c0,0-34.98,19.56-47.48,25.2c-7.12,3.22-23.52,10.89-35.07,16.32
			c-7.35,3.45-16.09,1.56-21.37-4.61c-18.97-22.16-68.11-70.2-118.81-76.1l0.06,0.13l-0.29-0.13c0,0,30.84,76.18,31.74,91.59
			c0.91,15.42,3.63,252.1,3.63,252.1s-1.81,10.88,19.04,6.35c20.86-4.53,26.3-9.07,26.3-9.07s-19.95-146-14.51-196.78
			c1.07-10.01,0.1-21.26-2.15-32.88c30.89,18.79,67.45,27.14,67.45,27.14s27.33-11.92,64.69-39.3
			c11.73-8.59,32.33-41.36,32.33-41.36L813.16,516.78z"/>
		<path class="st11" d="M730.28,1180.59l-23.1,0.71c0,0-53.35-59.4-83.27-154.61c-0.7-2.21-1.43-4.45-2.21-6.72
			c-16.38-47.75-50.33-107.7-68.22-161.95c-2.85-8.64-5.41-16.78-7.7-24.48c-0.73-2.47-1.45-4.89-2.13-7.27l19.03-14.44
			c0,0,57.12,92.5,74.8,179.54C652.84,1066.98,714.36,1157.96,730.28,1180.59z"/>
		<path class="st8" d="M564.66,999.48c0.33,42.33-1.81,139.65-7.33,179.94h-20.46c-11.31,0-16.95-0.16-16.95-0.16
			c-13.83-70.05-23.67-128.02-30.83-177.97c-5.88-40.99-11.1-76.13-15.12-106.38c-4.04-30.44-6.86-55.93-7.86-77.47
			c-0.15-3.39-0.27-6.69-0.33-9.89c-0.06-3.22-0.08-6.35-0.05-9.39l111.63-10.88C575.95,861.45,564.48,974.87,564.66,999.48z"/>
		<path class="st11" d="M536.88,1179.42c-11.31,0-16.95-0.16-16.95-0.16c-13.83-70.05-23.67-128.02-30.83-177.97
			c-5.88-40.99-11.1-76.13-15.12-106.38c-4.04-30.44-6.86-55.93-7.86-77.47l40.96,24.09c0,0-26.14,9.22-16.17,79.05
			C500.88,990.41,522.99,1169.53,536.88,1179.42z"/>
		<path class="st10" d="M542.15,816.75c0,0-7.86,28.41-35.07,24.78c-27.2-3.63-65.89-19.95-65.89-19.95s11.63-36.74,26.08-85
			c17.5-58.43,39.17-133.75,49.38-181.26c2.87-13.31,4.82-24.43,5.55-32.39l22.9-43.61c0,0,33.32,75.34,35.13,94.39
			C582.05,592.77,542.15,816.75,542.15,816.75z"/>
		<path class="st12" d="M540.94,613.62c-1.21,30.83-8.47,90.68-73.15,122.72c-0.17,0.08-0.34,0.17-0.52,0.25
			c17.5-58.43,39.17-133.75,49.38-181.26C528.53,573.09,541.6,596.65,540.94,613.62z"/>
		<path class="st4" d="M657.99,596.76c-0.03,3.7-10.69,29.46-29.48,44.85c-3.64,2.98-6.55,4.43-8.87,4.83
			c-30.58,10.47-57.13,15.9-78.67,18.55v-34.12c26.62-1.71,59.41-3.49,72.91-4.21c2.22-3.54,4.83-8.55,5.7-13.61
			c1.61-9.39,6.64-16.34,19.73-18.07C652.4,593.25,658.02,593.07,657.99,596.76z"/>
		<path class="st10" d="M545.1,479.33c0,0-55.55,3.71-68.85,33.33c-13.3,29.62-17.53,128.17-0.6,157.18c0,0,23.31,6.64,64.52-1.07
			c0.5-0.09,1.01-0.19,1.52-0.29c0,0,13.15-32.19,1.36-38.54c0,0-34.76,1.81-31.13-9.67C515.55,608.79,545.1,479.33,545.1,479.33z"
			/>
	</g>
	<g>
		<path class="st13" d="M1297.91,769.07l-32.59-0.44c-0.37-0.12-0.72-0.18-1.1-0.19c-0.36,0-0.71,0.04-1.05,0.16
			c-4.27,1.3-7.65,10.57-7.74,21.84c-0.01,0.59-0.01,1.17,0.01,1.75c0.11,4.97,0.86,9.47,2.05,12.98c1.28,3.76,3.07,6.37,5.09,7.14
			c0.04,0.02,0.09,0.04,0.12,0.05c0.38,0.13,0.76,0.21,1.16,0.21c0.37,0,0.74-0.06,1.12-0.19l284.92,3.84l0.29-21.79l0.29-21.96
			L1297.91,769.07z"/>
		<path class="st14" d="M1422.24,810.41c-60.08,5.01-96.29-21.77-124.33-41.34l-32.59-0.44c-0.37-0.12-0.72-0.18-1.1-0.19
			c-0.36,0-0.71,0.04-1.05,0.16c-4.27,1.3-7.65,10.57-7.74,21.84c-0.01,0.59-0.01,1.17,0.01,1.75c0.11,4.97,0.86,9.47,2.05,12.98
			c2.12,4.01,4.08,6.65,5.09,7.14c0.04,0.02,0.09,0.04,0.12,0.05c0.38,0.13,0.76,0.21,1.16,0.21c0.37,0,0.74-0.06,1.12-0.19
			l284.92,3.84l0.29-21.79C1546.01,795.58,1517.73,802.46,1422.24,810.41z"/>
		<path class="st15" d="M1550.95,772.22c-4.76-0.04-8.7,9.81-8.8,22c-0.1,12.19,3.67,22.1,8.43,22.14c4.76,0.04,8.7-9.81,8.8-22
			C1559.48,782.17,1555.71,772.26,1550.95,772.22z"/>
	</g>
	<path class="st10" d="M557.61,333.26c-10.95,2.75-19.16,7.15-25.3,12.44c-0.61,0.52-1.2,1.06-1.77,1.61l-0.01,0.01
		c-22.69,21.64-13.64,56.09-13.64,56.09s3.02,8.7,5.1,12.08c2.08,3.38,32.21-0.52,33.77-7.01c1.56-6.49,7.53-13.25,7.53-13.25
		s31.76-2.18,33.9-2.34c7.18-0.52,27.66-7.65,27.66-7.65C624.63,383.22,613.1,319.32,557.61,333.26z"/>
	<path class="st12" d="M643.68,378.48c-3.81-0.93-10.31-1.97-21.02-2.36c0,0-20.71,8.08-38.58,13.76
		c-8.4-10.58-20.61-36.72-51.76-44.18c-0.09-0.02-0.18-0.05-0.27-0.07c-0.66,0.83-1.04,1.11-1.5,1.68l-0.01,0.01
		c-0.14,0.16-0.29,0.36-0.45,0.6c25.36,4.42,38.81,33.85,47.09,44.52c-7.1,1.75-4.61,2.18-13.87,2.79c0,0,55.52,1.04,80.89-12.33
		C646.13,381.87,645.8,379,643.68,378.48z"/>
	<rect x="1199.14" y="828.74" class="st2" width="22.19" height="436.84"/>
	<rect x="1130.48" y="811.83" class="st2" width="563.07" height="22.19"/>
	<rect x="1199.14" y="834.01" class="st3" width="22.19" height="16.67"/>
	<g>
		<path class="st14" d="M1617.83,768.43l0.01,21.96l0.01,21.8l-284.95,0.11c-0.37,0.13-0.74,0.2-1.11,0.2
			c-0.39,0-0.78-0.07-1.16-0.19c-4-1.34-7.17-9.7-7.53-20.08c-0.03-0.57-0.04-1.15-0.04-1.74c-0.06-11.27,3.19-20.59,7.44-21.94
			c0.35-0.12,0.7-0.17,1.06-0.17c0.38,0,0.73,0.06,1.1,0.18L1617.83,768.43z"/>
		<path class="st16" d="M1617.85,790.39l0.01,21.8l-284.95,0.11c-0.37,0.13-0.74,0.2-1.11,0.2c-0.39,0-0.78-0.07-1.16-0.19
			c-4-1.34-7.17-9.7-7.53-20.08c13.09,4.8,86.72,21.61,164.58,0.12C1580.04,766.84,1613.69,791.58,1617.85,790.39z"/>
		<path class="st13" d="M1618.3,768.16c-4.76,0.03-8.56,9.93-8.5,22.12c0.07,12.19,3.98,22.05,8.73,22.02s8.56-9.93,8.5-22.12
			C1626.97,778,1623.06,768.13,1618.3,768.16z"/>
	</g>
	<g>
		<g>
			<path class="st11" d="M1517.55,480.09c0,0,69.72,71.97,73.06,99.11c3.34,27.14-33.17,69.59-33.17,69.59L1517.55,480.09z"/>
			<path class="st0" d="M1487.74,1226.7c0,0-2.37,38.26-9.77,38.81c-0.98,0.07-37.54,0.07-37.54,0.07l-46.67-0.27
				c0,0,0.31-11.24,13.95-13.62c13.64-2.38,36.47-11.96,44.74-30C1461.13,1202.73,1487.74,1226.7,1487.74,1226.7z"/>
			<path class="st0" d="M1591.69,1226.7c0,0-2.37,38.26-9.77,38.81c-0.98,0.07-37.54,0.07-37.54,0.07l-46.81-0.17
				c0,0,0.45-11.35,14.09-13.73c13.64-2.38,36.48-11.96,44.74-30C1565.08,1202.73,1591.69,1226.7,1591.69,1226.7z"/>
			<path class="st12" d="M1436.06,816.41c0,0,12.21,78.07,57.74,216.65c45.53,138.58,51.74,198.59,51.74,198.59
				s12.32,1.79,25.33,1.79c8.23,0,23.52-3.16,23.52-3.16s0.42-151.45-20.57-221.14c-20.99-69.69-4.53-251.23-4.53-251.23
				L1436.06,816.41z"/>
			<path class="st17" d="M1412.29,762.18c0,0-1.73,117.64,18.63,262.08c20.35,144.44,13.45,205.75,13.45,205.75s16.76,3,22.64,3.2
				c6.3,0.21,26.11-1.58,26.11-1.58s29.13-144.5,20.78-216.79c-8.35-72.3,39.89-248.08,39.89-248.08L1412.29,762.18z"/>
			<path class="st4" d="M1506.66,486.89l-22.99,17.03l-33.23-7c0.46-3.03,2.65-15.59,4.65-26.96c0.12-0.67,0.24-1.34,0.35-2
				c1.71-9.68,3.19-17.99,3.19-17.99l31.04-15.47l11.57-5.77c-0.03,0.2-0.9,10.74-1.02,12.28
				C1498.05,468.33,1506.66,486.89,1506.66,486.89z"/>
			<path class="st11" d="M1452.76,478.3c0.73-0.31,45.2-13.43,50.04-11.84c4.83,1.6,7.69,10.94,7.69,10.94l-72.75,16.45
				C1437.74,493.85,1443.47,482.21,1452.76,478.3z"/>
			<path class="st8" d="M1572.52,776.71c-7.54,34.39-133,38.47-165.34,7.25c-3.68-3.56-3.86-20.11-2.47-42.43
				c2.71-43.61,11.43-109.21,11.77-142.73c0.17-16.19,2.39-32.74,5.35-47.77c6.3-32.04,15.91-57.18,15.91-57.18
				s61.28-19.81,72.75-16.44C1565.73,493.64,1580.06,742.31,1572.52,776.71z"/>
			<path class="st11" d="M1404.71,741.52c2.71-43.61,11.43-109.21,11.77-142.73c0.17-16.19,2.39-32.74,5.35-47.77l36.86-6.51
				C1458.69,544.52,1494.73,691.73,1404.71,741.52z"/>
			<path class="st4" d="M1424.67,680.74c0,0,2.51,6.01-2.76,10.04c-5.28,4.03-8.7,10.57-7.49,15.34
				c1.21,4.78,12.78,12.56,16.8,11.31c4.01-1.26,12.18-7.54,11.3-10.06c-0.88-2.52,5.49-22.1-4.29-29.64
				C1428.44,670.18,1424.67,680.74,1424.67,680.74z"/>
			<path class="st8" d="M1465.89,485.02c0,0-35.95,6.73-64.6,48.94c-28.65,42.21-47.49,73.6-42.22,88.82
				c5.28,15.21,53.38,67.98,61.67,67.98c8.29,0,21.67-6.03,22.43-19.6c0,0-33.87-50.76-27.19-58.36
				c2.85-3.25,43.97-36.63,49.84-21.55C1475.53,616.2,1465.89,485.02,1465.89,485.02z"/>
			<path class="st7" d="M1497.89,441.49c-6.82,13.04-32.21,24.32-42.8,28.47c0.12-0.67,0.24-1.34,0.35-2
				c1.71-9.68,3.19-17.99,3.19-17.99l31.04-15.47C1496.52,434.39,1500.7,436.12,1497.89,441.49z"/>
			<path class="st4" d="M1448.74,453.18c0,0,54.81,6.3,58.21-27.89c3.4-34.19,12.76-56.41-22.09-61.88
				c-34.85-5.47-42.96,6.9-46.87,18.04C1434.08,392.59,1434.57,450.66,1448.74,453.18z"/>
			<path class="st9" d="M1439.43,377.94c0,0,10.46,37.05,17.94,33.93c7.48-3.12,14.32-5.67,15.34,5.9
				c1.02,11.57-7.29,26.74,17.1,24.19c24.39-2.56,47.14-71.05,38.31-81.52C1502.65,330.23,1404.07,341.91,1439.43,377.94z"/>
		</g>
		<path class="st10" d="M1530.06,399.83l-120.69-24.3l13.54-3.65c0,0,12.38-51.09,73.52-38.87
			C1547.27,343.17,1530.06,399.83,1530.06,399.83z"/>
	</g>
	<path class="st1" d="M1693.55,1262.79v7.77H309.82c-2.14,0-3.89-1.75-3.89-3.88c0-1.08,0.44-2.04,1.14-2.75s1.67-1.14,2.75-1.14
		H1693.55z"/>
	<path class="st12" d="M1434.51,374.72c21.71-39.26,80.17-34.56,80.17-34.56c-59.58-14.19-89.23,32.57-89.23,32.57l-2.57-0.87
		l-13.54,3.65l120.69,24.3L1434.51,374.72z"/>
</g>
</svg>
